<svg width="130" height="144" viewBox="0 0 130 144" fill="none" xmlns="http://www.w3.org/2000/svg">
<g clip-path="url(#clip0_1_18598)">
<path d="M64.12 65.61C56.71 65.61 50.7 71.62 50.7 79.03V90.56H64.91C70.84 90.56 75.65 85.75 75.65 79.82V65.61H64.12Z" fill="white"/>
<path d="M125.75 71.22C118.69 52.12 101.07 38.14 79.96 36.4C77.64 36.21 75.66 38.09 75.66 40.42V65.64C75.9 65.64 76.13 65.6 76.37 65.6C90.48 65.6 101.91 77.04 101.91 91.14C101.91 91.24 101.9 91.33 101.9 91.43C101.76 103.73 92.93 113.93 81.26 116.19C80.98 116.24 80.7 116.27 80.42 116.27H29.24C29.16 116.27 29.08 116.25 29 116.25C27.18 116.12 25.75 114.63 25.75 112.78V75.42C25.75 47.82 48.08 25.43 75.65 25.33V4.02C75.65 1.82 73.89 0 71.69 0H71.65C64.36 0 57.33 1.1 50.7 3.12C41.45 5.95 32.99 10.59 25.75 16.64C10.01 29.79 0 49.55 0 71.65V130.35C0 137.5 5.8 143.3 12.95 143.3H75.52C83.95 143.3 91.92 141.35 99.01 137.88C108.68 133.15 116.7 125.59 122.02 116.28C126.23 108.92 128.73 100.46 129.01 91.44C129.03 90.88 129.05 90.33 129.05 89.76C129.05 83.24 127.87 77 125.74 71.22H125.75Z" fill="#487BE2"/>
<path d="M75.68 65.61C75.68 65.61 75.66 65.63 75.65 65.64V79.81C75.65 85.74 70.84 90.55 64.91 90.55H50.7V79.02C50.7 71.61 56.71 65.6 64.12 65.6H75.65V25.33C48.25 25.43 26.04 47.54 25.76 74.9C25.76 74.97 25.75 75.05 25.75 75.12V112.78C25.75 114.63 27.19 116.12 29 116.25C29.08 116.25 29.16 116.27 29.24 116.27H80.83C92.71 114.17 101.75 103.88 101.89 91.43C101.89 91.33 101.9 91.24 101.9 91.14C101.9 76.81 90.09 65.23 75.67 65.6L75.68 65.61Z" fill="#F79145"/>
<path d="M10.57 143.3H12.95C12.2 143.3 11.47 143.22 10.75 143.1L10.57 143.3Z" fill="#97E4FF"/>
<path d="M49.13 99.81C51.21 97.46 51 93.87 48.65 91.79C46.3 89.71 42.71 89.92 40.63 92.27L25.74 109.06L1.5 136.4C3.34 139.88 6.73 142.41 10.74 143.1L34.52 116.28L49.12 99.81H49.13Z" fill="#97E4FF"/>
<path d="M57.55 116.28C57.71 114.54 57.08 112.74 55.67 111.49C53.32 109.41 49.73 109.62 47.65 111.97L43.83 116.28L19.87 143.3H35.05L56.15 119.51C56.98 118.57 57.44 117.44 57.55 116.28Z" fill="#97E4FF"/>
<path d="M62.82 131.18C60.47 129.1 56.88 129.31 54.8 131.66L44.48 143.3H59.66L63.3 139.2C65.38 136.85 65.17 133.26 62.82 131.18Z" fill="#97E4FF"/>
</g>
<defs>
<clipPath id="clip0_1_18598">
<rect width="129.06" height="143.3" fill="white"/>
</clipPath>
</defs>
</svg>
