<svg width="214" height="62" viewBox="0 0 214 62" fill="none" xmlns="http://www.w3.org/2000/svg">
<g clip-path="url(#clip0_16_19022)">
<path d="M64.8982 28.4473H72.5427C76.7597 28.4473 78.6436 30.6408 78.6436 33.2801C78.6436 35.5039 77.3746 36.9533 75.918 37.4725C77.2655 37.9095 79.2672 39.2681 79.2672 42.0414C79.2672 45.6065 76.5111 47.7049 72.7433 47.7049H64.8982V28.4473ZM72.05 36.3779C74.7057 36.3779 75.7523 35.3179 75.7523 33.5397C75.7523 31.8912 74.5487 30.7663 72.3945 30.7663H67.7196V36.3779H72.0456H72.05ZM67.724 45.3902H72.3291C74.7362 45.3902 76.3018 44.2912 76.3018 42.0154C76.3018 40.0252 75.0153 38.7013 71.9235 38.7013H67.724V45.3902Z" fill="black"/>
<path d="M93.7277 40.6222C93.7277 44.7282 91.3336 48.0423 86.9553 48.0423C82.8125 48.0423 80.3268 44.9142 80.3268 40.6785C80.3268 36.4427 82.7907 33.2627 87.121 33.2627C91.1156 33.2627 93.7277 36.1961 93.7277 40.6265V40.6222ZM83.144 40.6482C83.144 43.6725 84.6266 45.8055 87.0556 45.8055C89.4846 45.8055 90.915 43.7677 90.915 40.6612C90.915 37.5547 89.5282 35.4952 86.9989 35.4952C84.4697 35.4952 83.144 37.4725 83.144 40.6482Z" fill="black"/>
<path d="M107.656 27.3742V43.7417C107.656 45.0613 107.656 46.3593 107.682 47.7092H105.044C104.974 47.3241 104.922 46.3117 104.909 45.8098C104.211 47.2116 102.811 48.0423 100.518 48.0423C96.8719 48.0423 94.6174 45.1175 94.6174 40.7909C94.6174 36.4644 97.042 33.2584 100.997 33.2584C103.422 33.2584 104.543 34.2102 104.909 34.9717V27.3699H107.652L107.656 27.3742ZM97.4606 40.7087C97.4606 43.9926 98.9869 45.7665 101.163 45.7665C104.368 45.7665 105.018 43.3696 105.018 40.4794C105.018 37.5893 104.421 35.5298 101.337 35.5298C98.9128 35.5298 97.4606 37.4292 97.4606 40.7087Z" fill="black"/>
<path d="M111.699 33.5916C113.836 39.9862 115.105 43.8499 115.453 45.256H115.48C115.911 43.6898 116.888 40.4752 119.095 33.5916H121.855L116.805 48.3106C115.375 52.4252 114.294 53.5068 111.28 53.5068C110.853 53.5068 110.264 53.4809 109.688 53.4117V51.0926C110.033 51.1359 110.447 51.1618 110.831 51.1618C112.562 51.1618 113.256 50.4306 114.036 48.2284L108.738 33.5916H111.699Z" fill="black"/>
<path d="M123.011 28.5901H131.432C136.085 28.5901 137.851 31 137.851 33.4791C137.851 35.6338 136.7 37.0356 135.4 37.624C136.7 38.1086 138.405 39.4671 138.405 41.9809C138.405 45.2518 135.814 47.705 131.715 47.705H123.011V28.5901ZM130.952 36.1313C132.932 36.1313 133.747 35.2487 133.747 33.9075C133.747 32.5662 132.674 31.7831 131.07 31.7831H127.101V36.1313H130.952ZM127.101 44.5163H130.86C133.111 44.5163 134.131 43.5817 134.131 41.8511C134.131 40.3108 133.128 39.3287 130.834 39.3287H127.097V44.5206L127.101 44.5163Z" fill="#487BE2"/>
<path d="M153.384 40.5012C153.384 44.8451 150.763 48.0381 146.184 48.0381C141.606 48.0381 139.081 44.8624 139.081 40.5791C139.081 36.2957 141.78 33.0205 146.372 33.0205C150.628 33.0205 153.384 36.0015 153.384 40.5012ZM143.145 40.5315C143.145 43.2962 144.344 44.9316 146.272 44.9316C148.199 44.9316 149.324 43.2918 149.324 40.5574C149.324 37.5548 148.212 36.1356 146.219 36.1356C144.362 36.1356 143.149 37.4985 143.149 40.5358L143.145 40.5315Z" fill="#487BE2"/>
<path d="M168.364 40.5012C168.364 44.8451 165.743 48.0381 161.164 48.0381C156.585 48.0381 154.06 44.8624 154.06 40.5791C154.06 36.2957 156.759 33.0205 161.351 33.0205C165.608 33.0205 168.364 36.0015 168.364 40.5012ZM158.124 40.5315C158.124 43.2962 159.324 44.9316 161.251 44.9316C163.179 44.9316 164.304 43.2918 164.304 40.5574C164.304 37.5548 163.192 36.1356 161.199 36.1356C159.341 36.1356 158.129 37.4985 158.129 40.5358L158.124 40.5315Z" fill="#487BE2"/>
<path d="M172.781 43.3913C173.082 44.5336 174.024 45.1782 175.52 45.1782C177.016 45.1782 177.539 44.6504 177.539 43.7807C177.539 42.8592 176.915 42.4957 174.844 41.9938C170.13 40.843 169.362 39.3936 169.362 37.3687C169.362 35.3439 170.867 33.0205 175.228 33.0205C179.589 33.0205 181.102 35.3958 181.224 37.3428H177.417C177.29 36.8149 176.933 35.8112 175.049 35.8112C173.723 35.8112 173.296 36.3909 173.296 37.0399C173.296 37.7538 173.745 38.0999 176.095 38.6407C180.923 39.7527 181.603 41.3968 181.603 43.4995C181.603 45.8748 179.78 48.0381 175.372 48.0381C170.963 48.0381 169.166 45.9354 168.848 43.3913H172.781Z" fill="#487BE2"/>
<path d="M181.281 33.3535H183.509V29.4683H187.512V33.3535H190.347V36.3389H187.512V43.4215C187.512 44.5118 187.848 44.9358 189.043 44.9358C189.265 44.9358 189.653 44.9358 189.954 44.8925V47.627C189.161 47.8952 188.07 47.8995 187.264 47.8995C184.442 47.8995 183.509 46.4025 183.509 43.8888V36.3389H181.281V33.3535Z" fill="#487BE2"/>
<path d="M194.341 41.3795C194.341 43.175 195.253 44.9273 197.246 44.9273C198.911 44.9273 199.391 44.2653 199.771 43.3957H203.778C203.264 45.1523 201.685 48.0381 197.141 48.0381C192.597 48.0381 190.307 44.5033 190.307 40.7391C190.307 36.2352 192.636 33.0205 197.281 33.0205C202.248 33.0205 203.94 36.5856 203.94 40.168C203.94 40.6526 203.94 40.9684 203.887 41.3795H194.341ZM199.928 38.9393C199.901 37.2692 199.225 35.8631 197.276 35.8631C195.327 35.8631 194.585 37.174 194.424 38.9393H199.928Z" fill="#487BE2"/>
<path d="M205.352 37.2476C205.352 35.8198 205.352 34.5564 205.326 33.3537H209.255C209.308 33.6738 209.36 35.0973 209.36 35.8717C209.997 34.232 211.54 33.0335 214 33.0205V36.8106C211.096 36.737 209.36 37.5115 209.36 41.4487V47.7049H205.357V37.2476H205.352Z" fill="#487BE2"/>
<path d="M56.2811 39.5623V38.8354C56.2811 39.0777 56.268 39.32 56.2637 39.5623H56.2811Z" fill="#86E85A"/>
<path d="M27.9618 28.3867C24.7304 28.3867 22.1095 30.987 22.1095 34.193V39.1816H28.3063C30.8923 39.1816 32.9898 37.1005 32.9898 34.5348V28.3867H27.9618Z" fill="white"/>
<path d="M54.8377 30.814C51.7589 22.5502 44.0751 16.5016 34.8694 15.7488C33.8576 15.6666 32.9942 16.48 32.9942 17.4881V28.3997C33.0989 28.3997 33.1992 28.3824 33.3038 28.3824C39.457 28.3824 44.4414 33.332 44.4414 39.4325C44.4414 39.4758 44.4371 39.5147 44.4371 39.558C44.376 44.8797 40.5254 49.2928 35.4363 50.2706C35.3142 50.2923 35.1921 50.3052 35.07 50.3052H12.7511C12.7162 50.3052 12.6814 50.2966 12.6465 50.2966C11.8528 50.2403 11.2292 49.5957 11.2292 48.7953V32.6311C11.2292 20.6897 20.967 11.0025 32.9898 10.9592V1.73929C32.9898 0.787439 32.2223 0 31.2629 0H31.2455C28.0664 0 25.0008 0.475925 22.1095 1.3499C18.0757 2.57432 14.3864 4.58186 11.2292 7.19944C4.36521 12.8889 0 21.4382 0 31V56.3971C0 59.4906 2.52929 62 5.6473 62H32.9331C36.6093 62 40.0849 61.1563 43.1768 59.655C47.3937 57.6085 50.8911 54.3376 53.2111 50.3096C55.047 47.1252 56.1372 43.4649 56.2593 39.5623C56.268 39.32 56.2768 39.0821 56.2768 38.8355C56.2768 36.0145 55.7622 33.3147 54.8333 30.814H54.8377Z" fill="#487BE2"/>
<path d="M33.0029 28.3867C33.0029 28.3867 32.9942 28.3954 32.9898 28.3997V34.5305C32.9898 37.0961 30.8923 39.1772 28.3063 39.1772H22.1095V34.1887C22.1095 30.9827 24.7304 28.3824 27.9618 28.3824H32.9898V10.9592C21.0411 11.0025 11.3557 20.5686 11.2335 32.4061C11.2335 32.4364 11.2292 32.471 11.2292 32.5013V48.7952C11.2292 49.5957 11.8571 50.2403 12.6465 50.2966C12.6813 50.2966 12.7162 50.3052 12.7511 50.3052H35.2487C40.4294 49.3966 44.3716 44.9446 44.4327 39.558C44.4327 39.5147 44.4371 39.4758 44.4371 39.4325C44.4371 33.2325 39.2869 28.2223 32.9985 28.3824L33.0029 28.3867Z" fill="#F79145"/>
<path d="M4.60942 62.0001H5.6473C5.32024 62.0001 5.0019 61.9655 4.68792 61.9136L4.60942 62.0001Z" fill="#97E4FF"/>
<path d="M21.4249 43.1837C22.3319 42.1669 22.2403 40.6137 21.2155 39.7138C20.1907 38.8138 18.6252 38.9047 17.7181 39.9214L11.2248 47.1858L0.654129 59.0147C1.45653 60.5203 2.93485 61.6149 4.68355 61.9135L15.0537 50.3096L21.4205 43.1837H21.4249Z" fill="#97E4FF"/>
<path d="M25.0967 50.3096C25.1665 49.5568 24.8917 48.778 24.2768 48.2372C23.252 47.3373 21.6865 47.4281 20.7794 48.4449L19.1136 50.3096L8.66501 62.0001H15.2848L24.4862 51.7071C24.8481 51.3004 25.0487 50.8115 25.0967 50.3096Z" fill="#97E4FF"/>
<path d="M27.3949 56.7562C26.3701 55.8563 24.8045 55.9472 23.8975 56.9639L19.3971 62.0001H26.0168L27.6042 60.2262C28.5112 59.2094 28.4197 57.6562 27.3949 56.7562Z" fill="#97E4FF"/>
</g>
<defs>
<clipPath id="clip0_16_19022">
<rect width="214" height="62" fill="white"/>
</clipPath>
</defs>
</svg>
