<svg width="50" height="48" viewBox="0 0 50 48" fill="none" xmlns="http://www.w3.org/2000/svg">
<g clip-path="url(#clip0_1_18707)">
<path d="M46.3386 0H3.75919C1.68401 0.151693 0.0977938 1.79865 0 3.88295V34.5683C0.203411 36.4832 1.57644 37.9745 3.47168 38.2503H14.5537C14.8666 42.7026 18.2327 46.6229 22.518 47.6828C28.8785 49.2569 35.0865 44.7554 35.6439 38.2503L46.6183 38.2404C48.5194 37.8996 49.8474 36.4142 50 34.4698V3.78642C49.8416 1.74939 48.3492 0.218674 46.3386 0ZM32.5008 41.8239C29.0017 47.7281 20.2805 47.3046 17.3154 41.1265C14.6984 35.6735 18.3187 29.1802 24.2978 28.6483C31.3566 28.0199 36.1368 35.6892 32.5008 41.8239ZM44.1382 36.2862H35.6439C35.0415 30.179 29.4731 25.8272 23.4177 26.7768C18.7295 27.5116 14.9722 31.5206 14.5517 36.2862H5.86371V5.90421H44.1402V36.2862H44.1382ZM48.048 34.3732C47.9678 35.3839 47.1503 36.3374 46.0922 36.2862V4.7734C46.0922 4.46017 45.4506 3.83567 45.0712 3.9322H4.93076C4.55132 3.8337 3.9098 4.46017 3.9098 4.7734V36.2862C2.86927 36.3315 2.10061 35.4469 1.95588 34.4678L1.9989 3.53819C2.18471 2.8605 2.69911 2.28919 3.36606 2.0646C17.7652 1.90897 32.2348 1.90897 46.632 2.0646C47.3987 2.32859 47.9972 3.04962 48.0461 3.88492V34.3732H48.048Z" fill="black"/>
<path d="M16.8518 25.6716C18.9407 25.5061 19.944 23.7212 19.7289 21.7354H30.4706C30.2906 23.2957 30.938 25.0175 32.5203 25.5199C33.3633 25.7878 36.4301 25.7642 37.2829 25.4982C38.6755 25.0648 39.2642 23.8611 39.3581 22.4762C39.538 19.8678 39.5615 15.5278 39.3522 12.9353C39.0803 9.57634 36.1113 9.62165 33.4435 9.83245C31.2607 10.0058 30.273 11.6784 30.4686 13.7686H19.7269C19.9225 11.6744 18.9329 10.0038 16.7521 9.83245C14.0041 9.61377 11.0742 9.58816 10.8375 13.0278C10.6556 15.6657 10.6419 19.9407 10.8434 22.5687C11.1035 25.971 14.1625 25.8843 16.8499 25.6716H16.8518ZM33.2733 11.8261C33.778 11.7237 35.8238 11.7375 36.3675 11.8123C37.1714 11.9227 37.3416 12.3836 37.4041 13.1283C37.6584 16.111 37.2086 19.4502 37.4002 22.4722C37.3455 23.0337 37.1597 23.5557 36.5494 23.6798C36.0644 23.7784 33.776 23.7705 33.2753 23.6798C32.89 23.6089 32.5555 23.3134 32.4636 22.9234L32.4186 12.8368C32.4636 12.3659 32.8078 11.9246 33.2733 11.8301V11.8261ZM19.7289 15.7367H30.4686V19.7674H19.7289V15.7367ZM12.7973 13.0338C12.8716 12.3718 13.0476 11.9443 13.7478 11.8281C14.2701 11.7394 16.4254 11.7257 16.9242 11.8281C17.3388 11.9128 17.642 12.2694 17.7535 12.6634L17.775 22.6692C17.7515 23.1341 17.4523 23.5518 17.0005 23.6601C16.533 23.7724 14.2348 23.7744 13.7283 23.6956C13.0105 23.5833 12.8462 23.0179 12.7914 22.3777C12.5371 19.395 12.987 16.0538 12.7953 13.0338H12.7973Z" fill="black"/>
<path d="M27.9612 36.1089C26.5451 35.183 24.5404 33.9379 23.0519 33.1873C22.6393 32.9805 22.3459 32.7539 21.851 32.8662C21.4872 32.949 21.2349 33.3213 21.1939 33.6799C20.9337 35.9237 21.3953 38.6621 21.1939 40.9611C21.2467 41.5383 21.7591 41.8811 22.3205 41.7984L28.5128 38.1991C29.5885 37.2279 28.8472 36.6881 27.9632 36.1109L27.9612 36.1089ZM23.1458 39.0403V35.5987L26.0738 37.3185L23.1458 39.0384V39.0403Z" fill="black"/>
</g>
<defs>
<clipPath id="clip0_1_18707">
<rect width="50" height="48" fill="white"/>
</clipPath>
</defs>
</svg>
