<svg width="39" height="56" viewBox="0 0 39 56" fill="none" xmlns="http://www.w3.org/2000/svg">
<g clip-path="url(#clip0_1_18731)">
<path d="M38.98 9.25074C38.7394 7.16574 37.3437 5.23076 35.3666 4.54424C33.8205 4.00519 32.1041 4.29506 30.4954 4.22386C30.6908 2.27108 29.4555 0.503919 27.526 0.196254C22.4643 0.509004 16.666 -0.335166 11.687 0.165742C9.63975 0.371699 8.30416 2.17955 8.49961 4.2264C7.00867 4.28743 5.48265 4.04842 4.02679 4.44507C1.68639 5.07566 0.218003 7.06912 0 9.48467V50.7346C0.223015 53.6281 2.35544 55.7411 5.18697 56.0005H33.8155C36.6646 55.7742 38.7469 53.6078 39.0025 50.7346L38.9825 9.25074H38.98ZM11.5642 3.46106C11.6143 3.35426 11.7271 3.26781 11.8398 3.23221H27.1602C27.4333 3.32629 27.4684 3.51191 27.5035 3.77126C27.5686 4.27217 27.5786 7.57511 27.4734 7.93872C27.4383 8.06331 27.3556 8.15485 27.2504 8.21841L11.8398 8.25655C11.6343 8.1879 11.5441 8.04297 11.5066 7.83447C11.4364 7.44798 11.469 3.65939 11.5642 3.45851V3.46106ZM36.0006 50.4803C35.9454 51.8635 34.9281 52.8984 33.5625 52.9543H5.43755C4.02679 52.8959 2.9919 51.7898 2.99942 50.3532L3.01947 9.49992C3.47552 6.61144 6.37972 7.33864 8.50463 7.26491C8.30917 9.31176 9.64476 11.1196 11.692 11.3256C16.671 11.8239 22.4668 10.9823 27.531 11.2951C29.4605 10.9874 30.6958 9.22023 30.5004 7.26745C32.8583 7.3361 35.765 6.58347 36.0056 9.86353V50.4803H36.0006Z" fill="black"/>
<path d="M10.6896 37.7203C15.7889 37.4482 21.259 38.0864 26.3157 37.7279C30.4227 37.4355 32.495 33.4537 30.979 29.6829C29.3878 25.7239 26.8219 21.8056 25.143 17.8416C24.1332 16.6592 22.6096 14.1674 21.031 13.8954C17.5379 13.2953 14.2704 15.1006 14.0023 18.879C13.7317 22.6651 15.9418 24.6509 19.6127 24.2822L19.9986 25.4112C18.2521 24.9458 16.5006 24.9357 14.8091 25.6222C13.3783 24.1195 11.4389 23.3974 9.39916 23.9745C8.42191 24.2517 7.66266 24.778 7.49978 25.851C8.08613 29.2404 5.62044 37.2092 10.6896 37.7177V37.7203ZM10.5017 26.8096C12.7594 26.4816 12.7694 29.6676 14.9971 28.8997C16.6634 28.3251 17.2197 27.7453 19.1517 28.3683C20.3469 28.7522 21.011 29.8914 21.8429 30.2016C23.1283 30.6796 24.3036 29.5456 24.0906 28.1725C23.9728 27.4097 22.3315 22.8253 21.9256 22.2506C20.7378 20.5623 19.1216 21.6098 17.7409 21.17C16.4179 20.7504 16.7411 17.211 18.8209 16.9237C19.1467 16.8779 20.1264 16.855 20.4096 16.9389C20.7027 17.0254 22.5194 19.3316 22.7675 19.7461C24.8273 23.1914 26.213 27.5267 28.2677 31.0381C28.9743 32.6019 28.0823 34.369 26.4235 34.6665L10.7523 34.6131C10.6921 34.5852 10.4992 34.3843 10.4992 34.3614V26.8122L10.5017 26.8096Z" fill="black"/>
<path d="M10.4716 40.8002C8.87797 41.0189 7.66016 42.397 7.5048 44.004C7.05125 48.6698 8.7176 50.3632 13.3132 49.903C16.4078 49.5928 16.7511 46.5874 16.5006 44.004C16.1898 40.8053 13.0376 40.4493 10.4716 40.8002ZM13.5011 46.5416C13.5011 46.5645 13.2105 46.8594 13.1879 46.8594H10.8124C10.7899 46.8594 10.4992 46.5645 10.4992 46.5416V44.1311C10.4992 44.0905 10.7548 43.8998 10.8124 43.8133H13.1879C13.2105 43.8133 13.5011 44.1083 13.5011 44.1311V46.5416Z" fill="black"/>
<path d="M30.4253 40.7799L20.7179 40.7977C19.0465 41.2706 19.1292 43.4497 20.8256 43.8006C23.795 43.526 27.5511 44.2125 30.4253 43.8006C32.1743 43.5514 32.1618 41.057 30.4253 40.7773V40.7799Z" fill="black"/>
<path d="M26.1329 46.9154C25.4588 46.7527 21.442 46.7578 20.7179 46.89C19.1718 47.1748 19.1092 49.4836 20.6176 49.8497C21.3343 50.0251 25.1205 50.0099 25.9274 49.8929C27.5912 49.6539 27.6714 47.2867 26.1354 46.9129L26.1329 46.9154Z" fill="black"/>
</g>
<defs>
<clipPath id="clip0_1_18731">
<rect width="39" height="56" fill="white"/>
</clipPath>
</defs>
</svg>
