<svg width="52" height="54" viewBox="0 0 52 54" fill="none" xmlns="http://www.w3.org/2000/svg">
<g clip-path="url(#clip0_1_18716)">
<path d="M51.1732 27.9475C49.3074 22.5927 44.405 18.7982 38.6474 18.2295L38.6236 9.46726L38.6188 9.42186C38.3416 8.00968 37.2068 6.92246 35.857 6.77431C34.7772 6.65723 33.5803 6.70979 32.4264 6.75997C31.4684 6.80299 30.4817 6.846 29.5691 6.79104V4.80776C29.5691 4.31792 29.0339 3.73011 28.5035 3.36451C28.0783 3.07061 27.6626 2.91768 27.3162 2.91768C27.3234 2.15543 27.1036 1.49594 26.6783 0.996534C26.2268 0.466068 25.5626 0.153045 24.7647 0.0933079C22.691 -0.0620087 20.4668 0.0120654 18.3167 0.0861394C16.6658 0.141098 14.96 0.200835 13.3546 0.150656H13.3164L13.2805 0.160214C12.0287 0.525805 11.2785 1.59868 11.3096 2.9368C10.9202 2.93919 10.4877 3.08733 10.084 3.36451C9.5369 3.73727 9.1451 4.2773 9.06387 4.77192C9.00414 5.13751 9.02804 5.56284 9.05431 5.97622C9.07104 6.24862 9.08776 6.52819 9.0782 6.77909L2.59194 6.80776L2.54177 6.81254C1.24691 7.0945 0.255454 8.12198 0.0141599 9.42425L0.00938176 9.44576L-0.00256348 51.1925V51.2259C0.212451 52.7695 1.51448 53.9619 3.03392 54.0001L36.1342 53.9404L36.1963 53.9332C38.7956 53.2379 38.7143 50.901 38.6451 48.8364C38.6259 48.3012 38.6092 47.7898 38.6331 47.3119C43.1675 46.8794 47.174 44.4661 49.6466 40.6668C52.1121 36.8794 52.6688 32.2438 51.1732 27.9475ZM25.4766 30.6811C26.1599 26.7337 28.5943 23.4983 32.154 21.8113C36.7935 19.6106 42.0041 20.4207 45.7501 23.9237C49.4722 27.4051 50.6237 32.5091 48.7579 37.245C47.26 41.0467 43.9487 43.8185 39.9017 44.6596C35.8594 45.5007 31.7216 44.2749 28.8285 41.3836C26.05 38.6047 24.7981 34.6047 25.4766 30.6811ZM2.36737 9.85197C2.35543 9.81613 2.37215 9.69904 2.46532 9.53417C2.59194 9.30956 2.75918 9.16858 2.80218 9.15663H9.06148V11.3621C9.06148 11.5342 9.46284 12.3442 9.49629 12.3968C10.0482 13.3119 10.9417 13.8424 12.0788 13.9308C14.5969 14.1268 17.2894 14.036 19.891 13.9499C22.2108 13.8735 24.6094 13.7922 26.8742 13.9165C27.4715 13.9308 28.1978 13.4314 28.6708 12.9655C29.2346 12.4111 29.5715 11.8113 29.5715 11.3621V9.15663H35.8116C35.9622 9.19725 36.2775 9.62497 36.256 9.754L36.2345 18.2271C30.8257 18.7839 26.1838 22.122 24.0838 26.987C22.2036 31.3406 22.5214 36.1602 24.9534 40.2056C27.3592 44.2104 31.5567 46.8508 36.2154 47.3048C36.1867 47.8018 36.2226 48.3753 36.256 48.9344C36.3038 49.7205 36.3563 50.5354 36.2273 51.1112C36.1604 51.4147 35.8403 51.6321 35.4796 51.6106L2.71617 51.515C2.48443 51.3741 2.36498 51.1375 2.37932 50.8364V9.8902L2.36737 9.85436V9.85197ZM27.18 10.9822C27.1442 11.2044 27.0008 11.3908 26.7858 11.4888L12.1051 11.5437C11.8399 11.5366 11.613 11.3836 11.4983 11.1399L11.4481 5.35974C12.3894 5.35018 13.443 4.54492 13.6556 3.61302C13.6891 3.46248 13.6915 3.28805 13.6938 3.12079C13.6986 2.74564 13.7225 2.55926 13.8372 2.5043L24.7145 2.48279C24.8985 2.5258 24.9319 2.67156 24.9439 3.1184C24.9486 3.31672 24.9558 3.52222 25.0084 3.71577C25.2592 4.60227 26.2793 5.3454 27.1848 5.35735L27.1776 10.9798L27.18 10.9822Z" fill="black"/>
<path d="M5.52829 21.9736C5.8102 22.062 6.86855 22.0931 7.87911 22.0931C8.76545 22.0931 9.61356 22.0692 9.86919 22.0405C10.3972 21.9784 10.777 21.7036 10.9084 21.2831C11.0733 20.7574 11.0374 17.4909 10.9729 16.9414C10.8965 16.2842 10.5262 15.9139 9.86919 15.8374C9.18592 15.7586 6.27129 15.7275 5.63819 15.8685C5.15321 15.976 4.83547 16.3679 4.76858 16.9414C4.66585 17.8183 4.66585 20.0596 4.76858 20.9366C4.83069 21.4647 5.10543 21.8446 5.52829 21.976V21.9736ZM7.15523 19.651V18.2221H8.58627V19.651H7.15523Z" fill="black"/>
<path d="M5.52829 34.1362C5.8102 34.2246 6.86855 34.2557 7.87911 34.2557C8.76545 34.2557 9.61356 34.2318 9.86919 34.2031C10.3972 34.141 10.777 33.8638 10.9084 33.4457C11.0733 32.92 11.0374 29.6535 10.9729 29.104C10.8965 28.4468 10.5262 28.0765 9.86919 28C9.18592 27.9212 6.27129 27.8901 5.63819 28.0311C5.15321 28.1386 4.83547 28.5305 4.76858 29.104C4.66585 29.9809 4.66585 32.2222 4.76858 33.0992C4.83069 33.6273 5.10543 34.0072 5.52829 34.1386V34.1362ZM7.15523 31.8136V30.3847H8.58627V31.8136H7.15523Z" fill="black"/>
<path d="M9.86919 40.1604C9.18592 40.0815 6.2689 40.0504 5.63819 40.1938C5.15321 40.3013 4.83547 40.6932 4.76858 41.2667C4.66585 42.1436 4.66585 44.385 4.76858 45.2619C4.83069 45.79 5.10543 46.1699 5.52829 46.3013C5.8102 46.3897 6.86855 46.4208 7.87673 46.4208C8.76306 46.4208 9.61117 46.3969 9.8668 46.3682C10.3948 46.3061 10.7746 46.0313 10.906 45.6108C11.0709 45.0851 11.035 41.8187 10.9705 41.2691C10.8941 40.612 10.5238 40.2416 9.8668 40.1651L9.86919 40.1604ZM8.58627 42.5475V43.9764H7.15523V42.5475H8.58627Z" fill="black"/>
<path d="M13.5125 20.1312H13.5316H13.5507C15.1394 19.9926 16.9073 20.0763 18.6178 20.1551C19.6619 20.2029 20.725 20.2531 21.7618 20.2531C22.5932 20.2531 23.4055 20.222 24.1748 20.1312C24.9488 20.0404 25.2976 19.4455 25.2952 18.9317C25.2928 18.4132 24.9393 17.8206 24.1724 17.7441H24.1604L13.2807 17.7704L13.2449 17.7824C12.5783 18.0046 12.337 18.5972 12.3944 19.0846C12.4517 19.5625 12.8196 20.0739 13.5101 20.1312H13.5125Z" fill="black"/>
<path d="M13.5124 44.456H13.5315H13.5506C15.1393 44.3174 16.9072 44.401 18.6178 44.4799C19.6618 44.5277 20.7249 44.5779 21.7618 44.5779C22.5932 44.5779 23.4054 44.5468 24.1747 44.4584C24.9488 44.3676 25.2976 43.7726 25.2952 43.2589C25.2928 42.7403 24.9392 42.1478 24.1723 42.0713H24.1604L13.3189 42.0976H13.2807L13.2448 42.1095C12.5783 42.3317 12.337 42.9243 12.3967 43.4118C12.454 43.8897 12.822 44.401 13.5124 44.4584V44.456Z" fill="black"/>
<path d="M19.509 29.9141L13.3213 29.9332L13.2544 29.9427C12.6166 30.1291 12.3633 30.7026 12.3944 31.1877C12.4326 31.7564 12.8292 32.196 13.3858 32.282C13.8732 32.3585 15.1633 32.3967 16.4558 32.3967C17.7482 32.3967 19.0383 32.3585 19.5281 32.282C20.1134 32.1912 20.5219 31.7038 20.5219 31.0992C20.5219 30.5879 20.2161 30.024 19.5281 29.9165H19.509V29.9141Z" fill="black"/>
<path d="M30.0256 33.983C29.9252 35.3594 30.188 36.3797 30.8044 37.0225C31.3515 37.5936 32.1661 37.8492 33.2293 37.7799C34.2661 37.713 35.7736 36.8194 35.7736 35.5697V33.9591H39.1111V35.5697C39.1111 36.8194 40.6186 37.713 41.6554 37.7799C41.7677 37.7871 41.8776 37.7895 41.9827 37.7895C42.8858 37.7895 43.5906 37.5314 44.0803 37.0225C44.6967 36.3797 44.9595 35.3594 44.8591 33.983C45.4134 33.9926 45.8482 33.7871 46.0991 33.4C46.3475 33.0153 46.3475 32.5183 46.0991 32.1336C45.8554 31.756 45.4277 31.5505 44.8998 31.5505C44.8878 31.5505 44.8735 31.5505 44.8615 31.5505C44.9619 30.1742 44.6991 29.1539 44.0827 28.5111C43.5356 27.94 42.7186 27.6867 41.6578 27.7537C40.621 27.8206 39.1135 28.7142 39.1135 29.9639V31.5744H35.776V29.9639C35.776 28.7142 34.2685 27.8206 33.2317 27.7537C32.1709 27.6867 31.3563 27.94 30.8068 28.5111C30.1904 29.1539 29.9276 30.1742 30.0279 31.5505C29.488 31.5434 29.0389 31.7441 28.788 32.1336C28.5396 32.5183 28.5396 33.0153 28.788 33.4C29.0389 33.7871 29.4832 33.9902 30.0279 33.983H30.0256ZM33.3869 32.3821C33.418 33.3905 33.473 35.075 33.3296 35.314C33.2699 35.3904 32.933 35.4717 32.6463 35.3809C32.5197 35.3403 32.4481 35.2829 32.4361 35.2065C32.503 34.4896 32.46 33.6867 32.417 32.9102C32.3716 32.0667 32.3262 31.1969 32.4242 30.4657C32.4576 30.2196 32.4839 30.1861 32.5842 30.1575C32.8016 30.093 33.1218 30.0882 33.2818 30.1933C33.3344 30.2268 33.3654 30.2698 33.3798 30.3271C33.332 30.6975 33.3583 31.4789 33.3869 32.3773V32.3821ZM42.451 32.3797C42.482 33.3881 42.537 35.075 42.3937 35.314C42.3339 35.3904 41.9971 35.4717 41.7104 35.3809C41.5838 35.3403 41.5121 35.2829 41.5002 35.2065C41.5647 34.4896 41.524 33.6867 41.481 32.9102C41.4356 32.0667 41.3903 31.1969 41.4882 30.4657C41.5217 30.2196 41.5479 30.1861 41.6459 30.1575C41.8633 30.093 42.1834 30.0882 42.3435 30.1933C42.396 30.2268 42.4271 30.2698 42.4414 30.3271C42.3937 30.6951 42.4199 31.4765 42.4486 32.3773L42.451 32.3797Z" fill="black"/>
<path d="M22.3878 7.73725H22.3687L16.1811 7.75159L16.1142 7.76115C15.4763 7.94753 15.2231 8.521 15.2541 9.00607C15.2923 9.57477 15.6889 10.0144 16.2456 10.1005C16.7329 10.1769 18.023 10.2152 19.3155 10.2152C20.608 10.2152 21.8981 10.1769 22.3878 10.1005C22.9731 10.0097 23.3817 9.5222 23.3817 8.91766C23.3817 8.40631 23.0759 7.84239 22.3878 7.73486V7.73725Z" fill="black"/>
</g>
<defs>
<clipPath id="clip0_1_18716">
<rect width="52" height="54" fill="white"/>
</clipPath>
</defs>
</svg>
