<svg width="25" height="26" viewBox="0 0 25 26" fill="none" xmlns="http://www.w3.org/2000/svg">
<path d="M20.9961 9.64795C20.9961 4.776 17.1846 0.812012 12.5 0.812012C7.81545 0.812012 4.00393 4.776 4.00393 9.64795C4.00393 14.1416 7.24612 17.8628 11.4258 18.4133V20.0073H9.66799C9.38309 20.0073 9.10986 20.125 8.9084 20.3345C8.70695 20.5441 8.59377 20.8282 8.59377 21.1245C8.59377 21.4208 8.70695 21.705 8.9084 21.9145C9.10986 22.124 9.38309 22.2417 9.66799 22.2417H11.4258V24.0698C11.4258 24.3661 11.539 24.6503 11.7404 24.8598C11.9419 25.0693 12.2151 25.187 12.5 25.187C12.7849 25.187 13.0582 25.0693 13.2596 24.8598C13.4611 24.6503 13.5742 24.3661 13.5742 24.0698V22.2417H15.3321C15.617 22.2417 15.8902 22.124 16.0916 21.9145C16.2931 21.705 16.4063 21.4208 16.4063 21.1245C16.4063 20.8282 16.2931 20.5441 16.0916 20.3345C15.8902 20.125 15.617 20.0073 15.3321 20.0073H13.5742V18.4133C17.7539 17.8628 20.9961 14.1416 20.9961 9.64795ZM6.15237 9.64795C6.15237 6.00795 9.00002 3.04639 12.5 3.04639C16 3.04639 18.8477 6.00795 18.8477 9.64795C18.8477 13.2879 16 16.2495 12.5 16.2495C9.00002 16.2495 6.15237 13.2879 6.15237 9.64795Z" fill="#F2F2F2"/>
</svg>
