<svg width="25" height="26" viewBox="0 0 25 26" fill="none" xmlns="http://www.w3.org/2000/svg">
<path d="M21.582 2.44141H17.1875C16.9026 2.44141 16.6294 2.55911 16.4279 2.76862C16.2265 2.97814 16.1133 3.2623 16.1133 3.55859C16.1133 3.85489 16.2265 4.13905 16.4279 4.34856C16.6294 4.55808 16.9026 4.67578 17.1875 4.67578H18.9888L16.0401 7.74246C12.7105 5.05816 7.88576 5.30496 4.83205 8.48234C1.51955 11.9279 1.51955 17.5331 4.834 20.9766C6.42851 22.6299 8.58826 23.5583 10.8399 23.5583C13.0915 23.5583 15.2512 22.6299 16.8457 20.9766C19.9009 17.7987 20.1382 12.783 17.5571 9.32023L20.5078 6.25559V8.12891C20.5078 8.4252 20.621 8.70936 20.8225 8.91888C21.0239 9.12839 21.2971 9.24609 21.582 9.24609C21.8669 9.24609 22.1402 9.12839 22.3416 8.91888C22.5431 8.70936 22.6563 8.4252 22.6563 8.12891V3.55859C22.6563 3.41188 22.6285 3.26661 22.5745 3.13106C22.5205 2.99552 22.4414 2.87236 22.3416 2.76862C22.2419 2.66488 22.1235 2.58259 21.9931 2.52645C21.8628 2.4703 21.7231 2.44141 21.582 2.44141ZM15.3281 19.3983C14.1369 20.6346 12.5228 21.3289 10.8399 21.3289C9.15696 21.3289 7.5428 20.6346 6.35158 19.3983C3.87648 16.8247 3.87648 12.6362 6.35158 10.0627C8.82667 7.48906 12.8535 7.48855 15.3281 10.0627C17.8027 12.6368 17.8032 16.8247 15.3281 19.3983Z" fill="#F2F2F2"/>
</svg>
