<svg width="20" height="20" viewBox="0 0 20 20" fill="none" xmlns="http://www.w3.org/2000/svg">
<g clip-path="url(#clip0_1_6310)">
<path d="M10.0021 20C7.44059 20 4.87912 19.025 2.92915 17.075C-0.975061 13.1751 -0.97506 6.82916 2.92488 2.92495C6.82481 -0.974984 13.175 -0.974984 17.075 2.92495C20.9749 6.82489 20.9749 13.1751 17.075 17.075C15.125 19.025 12.5635 20 9.99779 20H10.0021ZM10.0021 2.13812C7.98795 2.13812 5.97384 2.90357 4.43867 4.43874C1.3726 7.50481 1.3726 12.4995 4.43867 15.5655C7.50473 18.6316 12.4994 18.6316 15.5655 15.5655C18.6315 12.4995 18.6315 7.50481 15.5655 4.43874C14.0303 2.90357 12.0162 2.13812 10.0021 2.13812Z" fill="white"/>
</g>
<defs>
<clipPath id="clip0_1_6310">
<rect width="20" height="20" fill="white"/>
</clipPath>
</defs>
</svg>
