<svg width="273" height="307" viewBox="0 0 273 307" fill="none" xmlns="http://www.w3.org/2000/svg">
<g clip-path="url(#clip0_1_13831)">
<path d="M29.0663 231.455H11.2621V239.007H29.0663V231.455Z" fill="#EBEBEB"/>
<path d="M19.1355 240.978H1.33128V248.531H19.1355V240.978Z" fill="#EBEBEB"/>
<path d="M38.9971 240.978H21.1929V248.531H38.9971V240.978Z" fill="#EBEBEB"/>
<path d="M261.745 29.5889H243.94V37.1414H261.745V29.5889Z" fill="#EBEBEB"/>
<path d="M271.675 39.1123H253.871V46.6648H271.675V39.1123Z" fill="#EBEBEB"/>
<path d="M19.1355 29.6025H1.33128V37.155H19.1355V29.6025Z" fill="#EBEBEB"/>
<path d="M271.682 231.394H253.878V238.947H271.682V231.394Z" fill="#EBEBEB"/>
<path d="M229.169 144.375H211.364V151.928H229.169V144.375Z" fill="#EBEBEB"/>
<path d="M239.099 134.852H221.295V142.404H239.099V134.852Z" fill="#EBEBEB"/>
<path d="M31.0632 0H30.3909V72.2246H31.0632V0Z" fill="#C7C7C7"/>
<path d="M55.7121 96.4008L53.7017 100.835H7.74563L5.74199 96.4008L25.3078 82.8076H36.1463L55.7121 96.4008Z" fill="#EBEBEB"/>
<path d="M37.5045 69.7139L36.1463 82.8076H25.3078L23.9496 69.7139H37.5045Z" fill="#DBDBDB"/>
<path d="M55.7054 96.4072L53.695 100.842H7.73891L5.74199 96.4072H55.7054Z" fill="#DBDBDB"/>
<path d="M78.8817 0H78.2094V57.9227H78.8817V0Z" fill="#C7C7C7"/>
<path d="M103.531 82.099L101.52 86.5333H55.5642L53.5605 82.099L73.1263 68.5059H83.9648L103.531 82.099Z" fill="#EBEBEB"/>
<path d="M85.323 55.4053L83.9648 68.5057H73.1263L71.7681 55.4053H85.323Z" fill="#DBDBDB"/>
<path d="M103.531 82.0986L101.52 86.5329H55.5642L53.5605 82.0986H103.531Z" fill="#DBDBDB"/>
<path d="M269.84 290.95C269.84 299.819 210.147 307 136.503 307C62.8593 307 3.16683 299.819 3.16683 290.95C3.16683 282.082 62.8593 274.9 136.503 274.9C210.147 274.9 269.84 282.082 269.84 290.95Z" fill="#EBEBEB"/>
<path d="M241.54 200.948C242.031 204.363 241.856 207.832 241.022 211.18C240.632 212.732 240.108 214.244 239.462 215.702C238.649 217.578 237.802 219.401 238.01 221.452C238.205 221.581 237.533 221.56 237.506 221.365C232.053 218.247 225.06 217.673 220.865 212.591C218.976 210.107 217.779 207.164 217.402 204.059C216.884 200.725 216.73 197.04 217.597 193.76C218.317 191.006 219.937 188.306 222.566 186.957C225.195 185.607 228.765 185.674 231.589 186.552C237.647 188.435 240.679 195.056 241.54 200.948Z" fill="#97E4FF"/>
<path d="M244.337 241.464C243.598 238.974 242.844 236.49 242.085 234.006C240.592 229.14 239.039 224.294 237.311 219.502C236.282 216.634 235.193 213.792 234.05 210.978C234.184 209.203 234.406 207.434 234.722 205.686C235.18 203.567 235.838 201.515 236.457 199.443C236.497 199.315 236.289 199.247 236.235 199.369C235.011 202.231 233.411 205.889 233.378 209.277C232.033 206.091 230.601 202.953 229.088 199.862C228.9 197.25 228.967 194.617 229.29 192.019C229.29 191.965 229.249 191.924 229.195 191.924C229.155 191.924 229.122 191.951 229.108 191.985C228.644 194.26 228.463 196.581 228.57 198.903C227.4 196.581 226.163 194.287 224.852 192.026C224.731 191.823 224.455 192.026 224.556 192.235C226.607 196.197 228.503 200.24 230.291 204.336C227.784 202.15 224.879 200.462 221.739 199.369C221.604 199.315 221.504 199.517 221.638 199.571C225.067 201.049 228.2 203.128 230.89 205.72C232.167 208.717 233.391 211.74 234.554 214.791C231.139 211.416 226.486 209.223 221.954 208.042C221.799 208.001 221.759 208.237 221.907 208.278C227.138 209.857 231.192 212.834 235.173 216.377C235.63 217.612 236.087 218.847 236.518 220.083C238.198 224.773 239.799 229.498 241.325 234.256C242.058 236.504 242.784 238.785 243.49 241.086C244.25 243.543 244.835 246.135 245.843 248.511C245.937 248.733 246.341 248.686 246.287 248.409C245.756 246.061 245.104 243.746 244.337 241.464Z" fill="#263238"/>
<path d="M235.294 196.156C234.326 197.648 233.66 199.321 233.331 201.069C233.331 201.117 233.391 201.144 233.411 201.069C234.016 199.423 234.729 197.81 235.536 196.25C235.623 196.115 235.388 196.014 235.294 196.156Z" fill="#263238"/>
<path d="M225.565 207.562C224.052 206.719 222.391 206.158 220.677 205.909C220.63 205.909 220.603 205.969 220.677 205.99C221.463 206.314 222.29 206.543 223.084 206.854C223.877 207.164 224.664 207.529 225.471 207.819C225.551 207.819 225.618 207.765 225.625 207.691C225.625 207.643 225.605 207.589 225.565 207.562Z" fill="#263238"/>
<path d="M222.828 193.847C222.337 193.47 221.813 193.146 221.255 192.869C221.208 192.855 221.161 192.876 221.141 192.923C221.127 192.957 221.141 192.99 221.161 193.011C221.645 193.395 222.169 193.733 222.714 194.016C222.815 194.077 222.929 193.908 222.828 193.847Z" fill="#263238"/>
<path d="M259.923 219.542C255.996 220.71 252.049 221.79 248.123 222.951C247.78 223.052 241.143 210.282 243.544 203.702C245.857 197.668 250.758 192.997 256.89 191.006C259.694 190.048 263.136 189.244 266.102 189.899C268.737 190.486 270.593 192.646 271.48 195.137C272.644 198.511 272.254 202.561 271.622 205.996C271.117 209.236 269.786 212.287 267.756 214.858C265.644 217.328 262.982 218.631 259.923 219.542Z" fill="#97E4FF"/>
<path d="M265.597 207.4C263.116 208.622 260.534 209.641 257.892 210.444C256.13 210.923 254.409 211.544 252.755 212.314C254.416 208.602 256.231 204.97 258.168 201.366C260.702 200.631 263.372 199.483 265.281 197.681C265.328 197.641 265.335 197.573 265.295 197.526C265.254 197.479 265.187 197.472 265.14 197.512C263.049 198.997 260.736 199.888 258.416 200.887C258.941 199.915 259.465 198.95 260.003 197.985C260.151 197.715 259.788 197.452 259.607 197.708C257.542 200.718 255.68 203.864 254.026 207.117C253.602 204.262 253.468 201.38 253.622 198.498C253.622 198.424 253.522 198.417 253.508 198.498C253.017 201.63 253.051 204.822 253.602 207.947C252.258 210.707 250.973 213.535 249.844 216.397C249.4 214.676 248.815 212.982 248.425 211.247C247.833 208.764 247.638 206.206 247.86 203.661C247.86 203.587 247.759 203.58 247.746 203.661C247.074 208.379 247.665 213.191 249.461 217.605C248.788 219.326 248.176 221.054 247.605 222.789C244.646 231.624 242.892 240.823 242.387 250.137C242.387 250.231 242.461 250.306 242.555 250.306C242.649 250.306 242.723 250.231 242.723 250.137C243.752 240.965 245.715 231.914 248.573 223.14C249.709 219.704 251.02 216.39 252.459 213.09C254.779 212.415 257.092 211.47 259.371 210.68C261.651 209.992 263.802 208.932 265.738 207.542C265.779 207.501 265.779 207.441 265.738 207.4C265.698 207.36 265.638 207.36 265.597 207.4Z" fill="#263238"/>
<path d="M269.275 203.695C266.875 204.552 264.569 205.753 262.202 206.624C262.088 206.665 262.155 206.84 262.262 206.82C264.804 206.293 267.319 205.504 269.369 203.83C269.443 203.769 269.363 203.661 269.275 203.695Z" fill="#263238"/>
<path d="M249.662 198.491C249.696 198.363 249.508 198.289 249.467 198.424C248.795 200.644 248.358 203.007 248.997 205.274C248.997 205.362 249.165 205.369 249.165 205.274C249.279 202.973 249.151 200.746 249.662 198.491Z" fill="#263238"/>
<path d="M259.586 193.362C258.82 194.469 258.457 195.798 258.544 197.141C258.544 197.222 258.685 197.27 258.706 197.175C259.001 195.9 259.492 194.745 259.882 193.51C259.909 193.423 259.855 193.328 259.768 193.301C259.701 193.281 259.627 193.301 259.586 193.362Z" fill="#263238"/>
<path d="M213.213 225.171C214.363 228.843 217.1 233.912 221.43 233.946C224.24 233.946 227.064 233.635 229.881 233.595C232.893 233.547 235.933 233.554 238.925 233.736C239.173 233.736 238.562 224.672 231.32 220.238C229.303 218.996 226.809 218.604 224.502 218.105C221.86 217.477 219.15 217.194 216.434 217.261C214.767 217.329 213.381 217.68 212.79 219.394C212.198 221.108 212.655 223.403 213.213 225.171Z" fill="#97E4FF"/>
<path d="M216.326 220.582C218.088 221.034 219.863 221.56 221.631 222.121C221.167 221.621 220.683 221.142 220.172 220.69C219.413 220.062 218.579 219.556 217.765 218.996C217.698 218.955 217.765 218.82 217.826 218.854C219.54 219.569 221.02 220.751 222.095 222.269C224.301 222.978 226.479 223.768 228.577 224.631C230.029 225.232 231.421 225.961 232.732 226.825C232.309 225.907 231.804 225.03 231.226 224.206C230.265 222.951 228.967 222.256 227.71 221.371C227.663 221.331 227.656 221.257 227.689 221.21C227.723 221.169 227.777 221.156 227.824 221.176C230.486 222.337 232.537 224.571 233.472 227.324C234.978 228.411 236.356 229.666 237.58 231.07C242.374 236.537 246.153 243.813 246.166 251.231C246.166 251.406 245.884 251.46 245.85 251.271C244.613 243.995 241.459 237.192 236.706 231.563C236.363 231.158 236.033 230.78 235.65 230.409C234.339 230.227 233.015 230.132 231.69 230.112C230.15 230.112 228.617 230.341 227.084 230.463C224.556 230.672 221.759 230.699 219.473 229.423C219.372 229.369 219.473 229.194 219.554 229.234C224.644 231.091 229.975 228.735 235.072 229.842C232.893 227.756 230.345 226.11 227.555 224.976L227.084 224.787C223.823 225.178 220.361 226.035 217.201 224.969C217.16 224.955 217.133 224.915 217.147 224.874C217.16 224.834 217.201 224.807 217.241 224.82C220.314 225.59 223.259 224.618 226.291 224.463C222.99 223.174 219.621 222.148 216.313 220.865C216.031 220.757 216.024 220.501 216.326 220.582Z" fill="#263238"/>
<path d="M214.888 223.808C216.468 224.01 218.054 224.138 219.641 224.172C219.675 224.172 219.688 224.226 219.641 224.233C218.041 224.53 216.394 224.429 214.847 223.929C214.773 223.909 214.814 223.794 214.888 223.808Z" fill="#263238"/>
<path d="M225.618 220.663C226.499 221.061 227.293 221.615 227.972 222.303C228.052 222.377 227.972 222.526 227.851 222.458C227.454 222.168 227.044 221.891 226.627 221.628C226.237 221.405 225.854 221.162 225.484 220.899C225.43 220.845 225.43 220.751 225.484 220.697C225.518 220.663 225.565 220.649 225.612 220.663H225.618Z" fill="#263238"/>
<path d="M251.202 232.474C251.148 232.589 251.323 232.703 251.39 232.575C251.417 232.616 251.457 232.643 251.505 232.649C254.423 233.345 257.374 233.864 260.353 234.202C262.746 234.418 265.51 234.546 267.608 233.156C270.452 231.259 272.314 226.204 270.781 222.991C268.966 219.178 263.486 221.25 260.736 222.606C256.507 224.678 253.138 228.168 251.202 232.474Z" fill="#97E4FF"/>
<path d="M249.077 234.236C250.671 232.683 252.446 231.32 254.362 230.186C255.747 227.992 257.576 226.123 259.741 224.699C259.849 224.625 259.936 224.793 259.842 224.867C258.127 226.244 256.608 227.844 255.324 229.633C257.455 228.465 259.674 227.452 261.953 226.609C262.767 225.09 264.01 223.848 265.517 223.025C265.517 223.025 265.584 223.025 265.557 223.072C264.313 224.017 263.224 225.158 262.336 226.447C263.681 225.947 265.026 225.475 266.404 225.023C266.525 224.982 266.572 225.171 266.458 225.212C264.037 226.163 261.563 227.162 259.163 228.316C262.088 228.782 265.073 228.782 267.998 228.316C268.078 228.316 268.112 228.418 267.998 228.438C264.945 229.342 261.704 229.396 258.625 228.58C257.099 229.322 255.613 230.159 254.181 231.077C255.384 230.976 256.601 231.077 257.771 231.374C259.842 231.86 261.96 232.096 264.084 232.089C264.165 232.089 264.185 232.224 264.084 232.238C260.42 232.865 256.957 231.198 253.327 231.63C251.982 232.555 250.711 233.588 249.548 234.735C247.282 237.003 245.42 239.648 244.035 242.544C242.502 245.669 241.675 248.976 240.437 252.202C240.424 252.263 240.357 252.297 240.296 252.283C240.236 252.27 240.202 252.202 240.216 252.142C241.305 245.784 244.458 238.771 249.077 234.236Z" fill="#263238"/>
<path d="M260.124 225.509C260.366 225.077 260.689 224.692 261.066 224.368C261.368 224.031 261.738 223.754 262.148 223.558C262.182 223.558 262.202 223.558 262.182 223.619C261.879 223.956 261.462 224.213 261.139 224.537C260.817 224.861 260.541 225.252 260.212 225.576C260.191 225.603 260.158 225.603 260.138 225.583C260.111 225.563 260.111 225.529 260.124 225.509Z" fill="#263238"/>
<path d="M266.169 227.486C266.713 227.351 267.285 227.358 267.836 227.243C268.388 227.115 268.925 226.953 269.457 226.757C269.49 226.75 269.531 226.771 269.537 226.804C269.544 226.831 269.537 226.858 269.51 226.879C268.502 227.5 267.325 227.776 266.149 227.655C266.081 227.641 266.088 227.506 266.169 227.486Z" fill="#263238"/>
<path d="M233.983 244.306L234.46 249.786L236.094 268.293H250.536L252.574 249.786L253.172 244.306H233.983Z" fill="#455A64"/>
<path d="M233.983 244.306L234.46 249.786H252.574L253.172 244.306H233.983Z" fill="#263238"/>
<path d="M254.611 242.807H232.557V247.255H254.611V242.807Z" fill="#455A64"/>
<path d="M0 268.245L34.1292 268.083L68.2517 268.023L136.503 267.915L204.755 268.023L238.878 268.083L273 268.245L238.878 268.414L204.755 268.475L136.503 268.583L68.2517 268.475L34.1292 268.414L0 268.245Z" fill="#263238"/>
<path d="M179.084 106.383V269.629C179.084 274.246 175.642 277.978 171.399 277.978H95.5026C91.2465 277.978 87.804 274.246 87.804 269.629V106.383C87.804 96.9814 91.2465 96.5225 95.5026 96.5225H110.725C111.606 96.5225 112.332 97.5281 112.332 98.7767V99.3167C112.332 102.246 113.925 102.253 115.882 102.253H151.04C153.017 102.253 154.603 102.253 154.603 99.3167V98.7767C154.603 97.5281 155.316 96.5225 156.217 96.5225H171.419C175.648 96.5225 179.091 97.7711 179.091 106.383H179.084Z" fill="white"/>
<path d="M179.084 106.383V269.629C179.084 274.246 175.642 277.978 171.399 277.978H95.5026C91.2465 277.978 87.804 274.246 87.804 269.629V106.383C87.804 96.9814 91.2465 96.5225 95.5026 96.5225H110.725C111.606 96.5225 112.332 97.5281 112.332 98.7767V99.3167C112.332 102.246 113.925 102.253 115.882 102.253H151.04C153.017 102.253 154.603 102.253 154.603 99.3167V98.7767C154.603 97.5281 155.316 96.5225 156.217 96.5225H171.419C175.648 96.5225 179.091 97.7711 179.091 106.383H179.084Z" fill="white"/>
<path d="M179.084 106.383L179.212 241.694V269.184C179.225 269.899 179.172 270.615 179.057 271.317C178.795 272.734 178.197 274.064 177.309 275.197C176.859 275.764 176.341 276.271 175.769 276.709C175.184 277.128 174.546 277.465 173.88 277.715C173.208 277.965 172.495 278.106 171.776 278.14C171.056 278.187 170.364 278.14 169.664 278.167H144.41L110.718 278.201H95.9733C95.2538 278.221 94.5344 278.16 93.8284 278.012C92.4097 277.681 91.1188 276.945 90.0968 275.899C89.0748 274.867 88.3285 273.591 87.9251 272.194C87.7301 271.499 87.6158 270.777 87.5821 270.054C87.5418 269.332 87.5821 268.637 87.5821 267.928V263.703L87.7099 128.393V107.247C87.6897 105.836 87.7502 104.419 87.8982 103.015L88.0595 101.962L88.3016 100.923C88.4024 100.586 88.5302 100.248 88.6445 99.9173C88.7924 99.5933 88.9605 99.2761 89.1487 98.9657C89.5185 98.3447 90.0161 97.8183 90.6078 97.4066C91.2264 97.0286 91.9054 96.7654 92.6181 96.6371C94.0167 96.4414 95.4286 96.3739 96.8406 96.4347H110.483C110.664 96.4212 110.846 96.4347 111.027 96.4752C111.209 96.5224 111.377 96.6034 111.532 96.7181C112.097 97.2108 112.413 97.933 112.399 98.6822C112.359 99.3774 112.419 100.079 112.587 100.761C112.675 101.092 112.85 101.389 113.092 101.625C113.347 101.854 113.656 102.01 113.986 102.084C114.672 102.205 115.371 102.253 116.07 102.219H151.874C152.573 102.259 153.259 102.057 153.83 101.652C154.099 101.422 154.301 101.119 154.408 100.788C154.509 100.464 154.57 100.12 154.583 99.7823V98.7294C154.59 98.3717 154.664 98.0208 154.798 97.6833C154.926 97.3458 155.141 97.0556 155.424 96.8261C155.565 96.7114 155.726 96.6304 155.894 96.5764C156.069 96.5359 156.251 96.5224 156.425 96.5359H171.17C171.876 96.5292 172.576 96.5629 173.275 96.6506C174.68 96.7654 176.005 97.3796 176.993 98.392C177.914 99.4786 178.519 100.801 178.748 102.212C178.997 103.589 179.118 104.993 179.111 106.397L179.084 106.383ZM179.084 106.383C179.084 104.973 178.963 103.562 178.708 102.178C178.472 100.781 177.874 99.4786 176.96 98.392C175.964 97.3863 174.647 96.7654 173.235 96.6574C172.535 96.5764 171.836 96.5359 171.137 96.5494H156.385C156.217 96.5494 156.049 96.5561 155.881 96.5966C155.713 96.6506 155.558 96.7249 155.424 96.8329C155.155 97.0556 154.946 97.3391 154.819 97.663C154.529 98.311 154.637 99.0332 154.59 99.7418C154.576 100.1 154.516 100.451 154.408 100.788C154.314 101.132 154.126 101.449 153.864 101.692C153.286 102.118 152.573 102.327 151.853 102.28H116.043C115.337 102.313 114.625 102.266 113.932 102.138C113.576 102.057 113.24 101.881 112.971 101.632C112.702 101.382 112.513 101.065 112.413 100.707C112.251 100.039 112.184 99.3504 112.211 98.6619C112.211 97.9668 111.915 97.3121 111.397 96.8531C111.263 96.7586 111.108 96.6844 110.954 96.6371C110.785 96.6034 110.617 96.5899 110.449 96.6034H96.7666C95.3681 96.5494 93.9696 96.6169 92.5845 96.8126C91.9054 96.9476 91.26 97.1973 90.6683 97.555C90.0968 97.9533 89.6194 98.4662 89.2698 99.0669C89.0882 99.3571 88.9605 99.6878 88.8058 99.9916C88.6512 100.295 88.5772 100.653 88.4764 100.997L88.2343 102.003L88.0864 103.042C87.9385 104.439 87.878 105.843 87.8982 107.247V128.393L88.0259 263.703V270.027C88.0528 270.709 88.1604 271.384 88.3486 272.045C88.7252 273.375 89.4244 274.59 90.3926 275.569C91.3474 276.561 92.5644 277.263 93.9024 277.587C94.5747 277.728 95.2538 277.789 95.9396 277.776H110.711L144.404 277.809H171.776C172.461 277.776 173.14 277.634 173.786 277.404C174.431 277.168 175.043 276.844 175.601 276.439C176.153 276.021 176.65 275.542 177.081 275.002C177.941 273.915 178.526 272.633 178.782 271.263C178.889 270.574 178.943 269.879 178.93 269.184V241.7L179.077 106.363L179.084 106.383Z" fill="#263238"/>
<path d="M179.084 106.383V125.956H87.7973V106.383C87.7973 96.9814 91.2398 96.5225 95.4959 96.5225H110.718C111.599 96.5225 112.325 97.5281 112.325 98.7767V99.3167C112.325 102.246 113.919 102.253 115.875 102.253H151.033C153.01 102.253 154.597 102.253 154.597 99.3167V98.7767C154.597 97.5281 155.309 96.5225 156.21 96.5225H171.412C175.642 96.5225 179.084 97.7711 179.084 106.383Z" fill="#F79145"/>
<path d="M108.083 100.187L107.935 100.336L107.854 100.423C107.067 99.6405 105.803 99.6405 105.017 100.423L104.943 100.336L104.795 100.187C104.855 100.133 104.916 100.079 104.983 100.025C105.272 99.789 105.622 99.627 105.985 99.5595C106.079 99.5595 106.173 99.5595 106.274 99.519H106.718C106.886 99.5393 107.061 99.5865 107.222 99.6473C107.343 99.6945 107.464 99.7485 107.572 99.816C107.693 99.8835 107.807 99.9645 107.914 100.052L108.069 100.194H108.089L108.083 100.187Z" fill="white"/>
<path d="M105.48 100.889L105.252 100.66C105.897 100.005 106.953 99.9985 107.605 100.653C107.605 100.653 107.605 100.653 107.612 100.66L107.383 100.889C106.859 100.363 106.005 100.363 105.48 100.889Z" fill="white"/>
<path d="M107.155 101.119L106.926 101.348C106.792 101.213 106.61 101.139 106.422 101.146C106.234 101.146 106.052 101.213 105.918 101.348L105.689 101.119C106.065 100.714 106.704 100.693 107.108 101.071C107.121 101.085 107.141 101.105 107.155 101.119Z" fill="white"/>
<path d="M106.637 101.564C106.637 101.679 106.543 101.773 106.429 101.773C106.314 101.794 106.207 101.713 106.186 101.598C106.166 101.483 106.247 101.375 106.361 101.355C106.381 101.355 106.402 101.355 106.429 101.355C106.543 101.355 106.637 101.449 106.637 101.564Z" fill="white"/>
<path d="M93.7545 100.633C93.7545 100.295 94.0234 100.025 94.3596 100.025C94.6958 100.025 94.9647 100.295 94.9647 100.633C94.9647 100.97 94.6958 101.24 94.3596 101.24C94.0234 101.24 93.7545 100.97 93.7545 100.633Z" fill="white"/>
<path d="M95.664 100.633C95.664 100.295 95.9329 100.025 96.2691 100.025C96.6053 100.025 96.8742 100.295 96.8742 100.633C96.8742 100.97 96.6053 101.24 96.2691 101.24C95.9396 101.24 95.664 100.97 95.664 100.633Z" fill="white"/>
<path d="M97.5668 100.633C97.5668 100.295 97.8357 100.025 98.1719 100.025C98.5081 100.025 98.777 100.295 98.777 100.633C98.777 100.97 98.5081 101.24 98.1719 101.24C97.8424 101.24 97.5668 100.977 97.5668 100.64C97.5668 100.64 97.5668 100.64 97.5668 100.633Z" fill="white"/>
<path d="M99.4695 100.633C99.4695 100.295 99.7385 100.025 100.075 100.025C100.411 100.025 100.68 100.295 100.68 100.633C100.68 100.97 100.411 101.24 100.075 101.24C99.7385 101.24 99.4695 100.97 99.4695 100.633Z" fill="white"/>
<path d="M101.379 100.633C101.379 100.295 101.648 100.025 101.984 100.025C102.32 100.025 102.589 100.295 102.589 100.633C102.589 100.97 102.32 101.24 101.984 101.24C101.648 101.24 101.379 100.97 101.379 100.633Z" fill="white"/>
<path d="M172.24 101.963H167.311V99.688H172.24V101.963ZM167.567 101.706H171.991V99.9242H167.567V101.706Z" fill="white"/>
<path d="M170.902 100.059H167.728V101.571H170.902V100.059Z" fill="white"/>
<path d="M172.677 100.208H172.24V101.429H172.677V100.208Z" fill="white"/>
<path d="M96.1212 120.57L93.425 118.039L96.1212 115.508L96.538 115.947L94.3192 118.039L96.538 120.132L96.1212 120.57Z" fill="white"/>
<path d="M166.713 208.197H100.176V214.109H166.713V208.197Z" fill="#EBEBEB"/>
<path d="M133.834 211.821C133.982 211.821 134.103 211.943 134.103 212.091C134.056 212.233 133.901 212.301 133.767 212.253C133.693 212.226 133.632 212.166 133.605 212.091C133.605 211.956 133.706 211.842 133.841 211.821H133.834Z" fill="#C7C7C7"/>
<path d="M103.188 189.123L110.752 189.063L118.316 189.042L133.444 188.995L148.572 189.042L156.13 189.063L163.694 189.123L156.13 189.184L148.572 189.204L133.444 189.245L118.316 189.204L110.752 189.184L103.188 189.123Z" fill="#263238"/>
<path d="M108.775 192.484L114.941 192.423L121.106 192.403L133.444 192.356L145.782 192.403L151.941 192.423L158.106 192.484L151.941 192.545L145.782 192.572L133.444 192.612L121.106 192.572L114.941 192.545L108.775 192.484Z" fill="#263238"/>
<path d="M100.176 225.293L108.493 225.225L116.81 225.205L133.444 225.165L150.072 225.205L158.396 225.225L166.713 225.293L158.396 225.354L150.072 225.374L133.444 225.414L116.81 225.374L108.493 225.354L100.176 225.293Z" fill="#EBEBEB"/>
<path d="M159.478 234.04H107.41V242.153H159.478V234.04Z" fill="#487BE2"/>
<path d="M147.053 162.092C153.473 162.092 158.678 156.867 158.678 150.423C158.678 143.978 153.473 138.753 147.053 138.753C140.632 138.753 135.428 143.978 135.428 150.423C135.428 156.867 140.632 162.092 147.053 162.092Z" fill="#455A64"/>
<path d="M123.993 168.545C124.696 164.196 121.754 160.098 117.421 159.392C113.089 158.686 109.007 161.64 108.303 165.989C107.6 170.338 110.542 174.436 114.875 175.142C119.207 175.847 123.289 172.894 123.993 168.545Z" fill="#EBEBEB"/>
<path d="M139.959 148.243V156.605H137.599V148.243C137.599 145.057 135.192 142.472 132.227 142.472C129.262 142.472 126.855 145.064 126.855 148.243V156.605H124.495V148.243C124.495 143.687 127.964 139.975 132.22 139.975C136.476 139.975 139.946 143.68 139.946 148.243H139.959Z" fill="#C7C7C7"/>
<path d="M124.508 150.422L126.862 150.517V156.618H124.508V150.422Z" fill="#A6A6A6"/>
<path d="M139.959 151.057V156.618H137.606V150.956L139.959 151.057Z" fill="#A6A6A6"/>
<path d="M142.985 151.854H121.483V171.427H142.985V151.854Z" fill="#487BE2"/>
<path opacity="0.1" d="M142.985 151.854H132.234V171.427H142.985V151.854Z" fill="black"/>
<path d="M133.142 162.356L134.043 166.641H130.217L131.118 162.356C130.217 161.802 129.941 160.614 130.492 159.717C131.044 158.812 132.227 158.535 133.121 159.089C134.016 159.642 134.298 160.83 133.747 161.728C133.592 161.984 133.377 162.194 133.121 162.356H133.128H133.142Z" fill="#263238"/>
<path d="M127.628 261.091C127.628 261.793 127.057 262.367 126.351 262.36C125.651 262.36 125.08 261.787 125.087 261.078C125.087 260.376 125.658 259.809 126.357 259.809C127.057 259.809 127.628 260.383 127.628 261.085V261.091Z" fill="#DBDBDB"/>
<path d="M135.367 261.091C135.367 262.158 134.5 263.022 133.437 263.015C132.375 263.015 131.514 262.144 131.521 261.078C131.521 260.011 132.382 259.154 133.444 259.154C134.506 259.154 135.367 260.025 135.367 261.091Z" fill="#C7C7C7"/>
<path d="M141.802 261.091C141.802 261.8 141.23 262.374 140.524 262.374C139.818 262.374 139.247 261.8 139.247 261.091C139.247 260.383 139.818 259.809 140.524 259.809C141.23 259.809 141.802 260.383 141.802 261.091Z" fill="#DBDBDB"/>
</g>
<defs>
<clipPath id="clip0_1_13831">
<rect width="273" height="307" fill="white"/>
</clipPath>
</defs>
</svg>
