<svg width="313" height="305" viewBox="0 0 313 305" fill="none" xmlns="http://www.w3.org/2000/svg">
<g clip-path="url(#clip0_1_13927)">
<path d="M238.288 223.601C234.675 221.33 230.59 219.923 226.347 219.484C224.397 219.278 222.242 219.34 220.696 220.52C220.333 220.733 220.107 221.131 220.114 221.556C220.21 221.844 220.408 222.084 220.668 222.242C225.526 225.961 232.875 226.427 238.288 223.614" fill="#E0E0E0"/>
<path d="M237.98 223.264C235.215 221.227 232.636 218.949 230.268 216.458C227.894 213.954 226.224 210.86 225.431 207.491C225.225 206.476 225.164 205.302 225.814 204.493C231.972 209.295 236.762 215.532 237.98 223.264Z" fill="#E0E0E0"/>
<path d="M238.219 223.559C237.651 220.191 237.706 216.753 238.363 213.405C239.136 210.091 240.936 206.915 243.761 205.028C244.822 207.518 244.364 210.386 243.618 212.987C242.461 217.014 240.648 220.829 238.267 224.273" fill="#E0E0E0"/>
<path d="M244.275 234.386C240.621 234.832 237.432 236.76 234.695 239.244C231.951 241.748 230.042 245.041 229.221 248.671C232.814 248.451 235.858 245.926 238.062 243.065C240.265 240.204 241.798 237.103 244.22 234.441" fill="#E0E0E0"/>
<path d="M245.554 236.095C242.632 228.644 243.666 220.218 248.291 213.693C250.378 221.131 249.612 229.522 245.554 236.095Z" fill="#E0E0E0"/>
<path d="M253.519 245.625C246.69 245.206 240.265 248.911 237.193 255.045C236.987 255.45 236.809 255.964 237.083 256.328C237.371 256.609 237.774 256.726 238.164 256.651C241.38 256.438 244.234 254.503 246.587 252.287C248.941 250.071 250.994 247.525 253.594 245.611" fill="#E0E0E0"/>
<path d="M253.266 245.103C251.555 239.566 251.445 233.659 252.965 228.067C253.56 225.879 254.566 223.566 256.584 222.544C256.748 222.434 256.954 222.4 257.145 222.441C257.309 222.53 257.433 222.674 257.494 222.853C258.172 224.39 258.466 226.064 258.35 227.738C258.226 229.405 257.973 231.059 257.583 232.685C256.947 235.71 256.605 238.956 254.956 241.563C254.566 242.194 254.21 242.846 253.902 243.518C253.587 244.204 253.587 244.41 253.3 244.938" fill="#E0E0E0"/>
<path d="M274.34 248.252C272.78 242.297 274.436 235.079 278.179 230.194C278.459 229.837 278.822 229.446 279.274 229.508C279.958 229.57 280.143 230.489 280.108 231.182C279.828 237.309 277.83 243.23 274.34 248.266" fill="#E0E0E0"/>
<path d="M276.242 249.556C283.461 251.436 291.734 249.611 297.741 245.172C294.149 243.36 290.037 242.853 286.109 243.738C282.223 244.63 278.672 246.379 276.249 249.556" fill="#E0E0E0"/>
<path d="M277.844 245.59C281.887 238.983 289.633 234.667 297.351 234.276C296.462 237.426 293.882 239.875 290.974 241.35C288.066 242.825 284.816 243.477 281.607 244.094C280.362 244.335 278.651 244.602 277.844 245.583" fill="#E0E0E0"/>
<path d="M274.744 226.345C275.839 222.585 276.94 218.798 277.241 214.887C277.543 210.976 276.981 206.908 274.963 203.56C271.186 210.88 270.803 219.443 274.628 226.743" fill="#E0E0E0"/>
<path d="M287.45 219.903C291.871 211.862 300.875 205.433 309.989 204.534C306.472 213.309 296.886 220.095 287.45 219.903Z" fill="#E0E0E0"/>
<path d="M284.679 221.481C291.262 222.489 296.872 226.702 303.024 229.261C304.31 229.886 305.74 230.16 307.17 230.057C308.963 230.05 310.407 228.582 310.4 226.791C310.4 225.831 309.962 224.918 309.223 224.301C308.354 223.491 307.328 222.867 306.212 222.469C299.507 219.67 292.322 219.601 285.261 221.296" fill="#E0E0E0"/>
<path d="M280.868 226.112C282.36 226.537 282.866 227.312 284.05 228.321C288.073 231.751 292.835 234.208 297.96 235.491C298.487 235.621 299.185 235.676 299.452 235.189C299.719 234.702 299.39 234.263 299.089 233.885C296.852 231.257 293.951 229.281 290.694 228.17C287.478 226.969 284.7 225.529 280.868 225.837" fill="#E0E0E0"/>
<path d="M276.564 198.146C282.031 203.182 289.359 205.673 296.749 205.007C297.085 205.007 297.413 204.891 297.673 204.671C298.179 204.122 297.57 203.265 296.989 202.805C291.056 198.16 283.865 196.239 276.578 198.119" fill="#E0E0E0"/>
<path d="M281.662 196.301C288.915 190.956 298.275 189.405 306.855 192.136C303.681 195.271 299.281 196.939 294.847 197.419C290.42 197.824 285.959 197.446 281.662 196.301Z" fill="#E0E0E0"/>
<path d="M279.636 183.423C279.055 177.481 279.431 172.795 279.02 166.826C279.02 166.352 278.89 165.776 278.446 165.605C277.823 165.364 277.31 166.133 277.077 166.764C275.346 172.363 276.283 178.455 279.629 183.265" fill="#E0E0E0"/>
<path d="M279.212 184.081C283.229 181.591 286.239 178.339 289.024 174.517C290.96 171.862 292.596 168.672 292.158 165.413C289.421 165.358 286.848 166.86 285.076 168.932C283.386 171.087 282.161 173.563 281.47 176.212C280.683 178.826 280.136 181.515 279.212 184.081Z" fill="#E0E0E0"/>
<path d="M288.853 181.392C297.687 178.112 305.863 173.282 313 167.114C310.119 165.955 306.842 166.648 303.927 167.8C297.344 170.469 291.959 174.97 288.73 181.316" fill="#E0E0E0"/>
<path d="M281.908 187.327C286.369 187.821 290.892 188.136 295.319 187.395C299.746 186.654 303.776 184.939 307.834 183.224C308.19 183.121 308.491 182.895 308.689 182.579C308.819 182.188 308.689 181.762 308.381 181.502C308.067 181.255 307.704 181.083 307.314 181.001C302.901 179.766 298.131 180.315 293.786 181.81C289.647 183.224 285.664 185.063 281.908 187.299" fill="#E0E0E0"/>
<path d="M256.468 198.359C253.43 192.184 253.621 185.014 256.249 178.675C258.103 181.495 258.302 185.097 257.987 188.459C257.672 191.821 256.618 195.285 256.564 198.661" fill="#E0E0E0"/>
<path d="M244.316 192.184C236.618 192.081 229.235 195.237 223.973 200.877C227.764 201.474 231.664 200.493 235.113 198.819C238.561 197.145 241.627 194.764 244.658 192.411" fill="#E0E0E0"/>
<path d="M236.153 189.44C232.437 189.138 228.859 188.671 225.287 189.769C221.715 190.867 218.444 193.357 217.008 196.808C220.504 197.103 224.007 196.452 227.169 194.928C230.323 193.371 233.327 191.532 236.153 189.44Z" fill="#E0E0E0"/>
<path d="M248.243 189.591C244.904 187.395 241.469 185.159 237.583 184.253C233.696 183.347 229.18 184.013 226.464 186.956C229.618 188.809 233.436 189.015 237.09 189.015C240.744 189.015 245.219 188.973 248.661 190.195" fill="#E0E0E0"/>
<path d="M248.264 189.769C242.55 184.143 240.388 174.037 242.68 166.346C247.19 173.268 249.167 181.55 248.264 189.769Z" fill="#E0E0E0"/>
<path d="M263.974 173.831C265.048 171.32 265.808 168.678 266.773 166.126C267.655 163.532 269.01 161.124 270.769 159.025C272.554 156.911 275.093 155.594 277.844 155.347C276.071 163.182 271.083 169.906 264.111 173.872" fill="#E0E0E0"/>
<path d="M261.134 177.151C259.328 174.688 257.275 171.347 254.867 169.543C252.458 167.738 249.304 166.599 246.355 167.306C249.454 172.747 254.928 176.41 261.134 177.186" fill="#E0E0E0"/>
<path d="M261.702 174.037C260.532 171.059 259.355 168.047 258.883 164.884C258.411 161.721 258.698 158.339 260.313 155.574C263.447 161.522 264.453 167.924 261.86 174.098" fill="#E0E0E0"/>
<path d="M264.001 155.574C265.78 149.68 271.159 145.344 276.968 143.354C277.686 143.059 278.473 142.943 279.246 143.011C280.026 143.094 280.683 143.636 280.916 144.383C281.128 145.385 280.307 146.284 279.547 146.95C275.011 150.84 269.728 153.769 264.022 155.546" fill="#E0E0E0"/>
<path d="M264.07 150.757C264.296 146.956 264.528 143.101 265.76 139.505C266.991 135.91 269.373 132.528 272.828 130.95C273.41 134.785 271.726 138.607 269.687 141.927C267.648 145.248 265.199 148.349 263.974 152.027" fill="#E0E0E0"/>
<path d="M263.974 153.371C262.503 149.076 262.352 143.622 259.786 139.883C257.994 137.269 255.127 135.485 253.58 132.713C252.65 135.368 252.78 138.284 253.943 140.85C255.113 143.382 256.714 145.687 258.685 147.663C260.587 149.721 262.209 151.224 263.974 153.371Z" fill="#E0E0E0"/>
<path d="M264.001 279.84C263.892 279.84 263.789 251.196 263.782 215.861C263.776 180.527 263.858 151.875 263.974 151.875C264.09 151.875 264.186 180.52 264.193 215.861C264.2 251.203 264.118 279.84 264.001 279.84Z" fill="#E0E0E0"/>
<path d="M288.969 194.023C288.627 194.194 288.265 194.325 287.895 194.428L284.939 195.429C282.449 196.28 279.021 197.488 275.305 199.045C271.59 200.603 268.155 201.913 266.177 203.628C265.39 204.287 264.761 205.117 264.343 206.057C264.063 206.743 264.015 207.141 263.974 207.134C263.96 207.038 263.96 206.935 263.974 206.839C264.015 206.558 264.083 206.277 264.179 206.002C264.556 205.001 265.171 204.116 265.972 203.409C267.169 202.4 268.504 201.563 269.934 200.939C271.514 200.198 273.273 199.429 275.134 198.661C278.863 197.124 282.312 195.917 284.837 195.155C286.096 194.757 287.122 194.469 287.834 194.277C288.203 194.16 288.586 194.078 288.969 194.023Z" fill="#E0E0E0"/>
<path d="M297.153 173.872C297.064 173.989 296.961 174.098 296.852 174.195L295.935 175.032L292.514 178.153L281.121 188.342C276.674 192.315 272.835 196.102 270.173 198.963C268.846 200.383 267.792 201.57 267.074 202.393L266.246 203.34C266.157 203.457 266.054 203.56 265.938 203.656C266.006 203.525 266.088 203.402 266.184 203.285C266.355 203.059 266.608 202.716 266.95 202.29C267.635 201.433 268.654 200.232 269.961 198.764C273.403 195.011 277.036 191.436 280.847 188.068C285.309 184.109 289.373 180.555 292.322 177.989C293.766 176.74 294.956 175.718 295.832 174.97C296.222 174.641 296.517 174.38 296.797 174.16C296.9 174.05 297.023 173.954 297.153 173.872Z" fill="#E0E0E0"/>
<path d="M276.325 192.376C276.208 192.328 277.132 190.174 278.063 187.457C278.993 184.74 279.431 182.441 279.554 182.462C279.465 184.218 279.103 185.947 278.487 187.587C278.097 188.754 277.638 189.899 277.118 191.018C276.92 191.505 276.653 191.965 276.325 192.376Z" fill="#E0E0E0"/>
<path d="M264.029 209.721C263.776 209.474 263.543 209.206 263.345 208.918L261.586 206.668C260.115 204.754 258.076 202.112 255.79 199.231C253.505 196.349 251.404 193.742 249.885 191.876L248.086 189.653C247.853 189.392 247.648 189.104 247.47 188.802C247.737 189.021 247.99 189.275 248.209 189.543C248.668 190.044 249.318 190.778 250.104 191.69C251.685 193.515 253.827 196.081 256.112 198.97C258.397 201.858 260.402 204.534 261.819 206.517C262.503 207.498 263.091 208.294 263.475 208.857C263.687 209.124 263.871 209.412 264.029 209.721Z" fill="#E0E0E0"/>
<path d="M258.555 202.675C257.453 201.447 256.666 199.965 256.263 198.366C255.831 196.96 255.654 195.491 255.743 194.023H255.92C255.838 194.352 255.784 194.524 255.749 194.524C255.715 194.524 255.749 194.332 255.749 193.989H255.934C256.016 195.423 256.263 196.836 256.666 198.215C257.398 200.809 258.644 202.599 258.555 202.675Z" fill="#E0E0E0"/>
<path d="M251.487 193.755C250.994 193.378 250.453 193.069 249.885 192.822C248.442 192.397 246.93 192.28 245.438 192.472C243.933 192.589 242.434 192.829 240.963 193.193C240.361 193.385 239.745 193.529 239.122 193.639C239.67 193.309 240.258 193.062 240.881 192.911C242.352 192.459 243.871 192.17 245.411 192.054C246.957 191.848 248.531 192.019 249.995 192.555C250.618 192.767 251.144 193.193 251.487 193.755Z" fill="#E0E0E0"/>
<path d="M249.81 191.594C249.81 191.663 248.88 191.224 247.361 190.702C243.385 189.337 239.129 189.015 234.996 189.756C233.416 190.037 232.458 190.339 232.437 190.27C232.636 190.14 232.855 190.051 233.087 189.989C233.689 189.783 234.312 189.605 234.935 189.467C239.115 188.555 243.467 188.891 247.456 190.428C248.059 190.654 248.64 190.922 249.208 191.224C249.427 191.32 249.625 191.443 249.81 191.594Z" fill="#E0E0E0"/>
<path d="M263.974 182.462C263.249 180.424 262.653 178.346 262.188 176.232C261.305 172.761 260.683 169.92 260.82 169.893C260.957 169.865 261.73 172.637 262.606 176.129C263.481 179.622 264.118 182.435 263.974 182.462Z" fill="#E0E0E0"/>
<path d="M264.118 182.462C263.995 182.503 263.475 180.637 262.133 178.73C261.292 177.598 260.313 176.582 259.212 175.711C259.629 175.814 260.012 176.013 260.341 176.294C261.169 176.898 261.887 177.639 262.469 178.49C263.351 179.649 263.919 181.015 264.118 182.462Z" fill="#E0E0E0"/>
<path d="M264.001 264.568C263.96 264.568 263.871 263.882 263.55 262.667C263.078 260.952 262.441 259.292 261.641 257.707C259.67 253.659 256.078 248.534 251.514 243.395C249.249 240.801 247.06 238.359 245.192 236.019C243.522 233.961 242.017 231.779 240.676 229.487C239.779 227.937 239.013 226.318 238.397 224.637C238.185 224.04 238.034 223.573 237.945 223.265C237.891 223.107 237.85 222.942 237.829 222.771C237.87 222.771 238.075 223.422 238.548 224.596C239.218 226.235 240.019 227.827 240.929 229.35C242.29 231.608 243.816 233.762 245.493 235.793C247.361 238.112 249.557 240.541 251.822 243.134C256.399 248.287 259.985 253.48 261.908 257.59C262.688 259.203 263.29 260.897 263.707 262.64C263.823 263.113 263.906 263.594 263.96 264.081C263.995 264.239 264.008 264.403 264.001 264.568Z" fill="#E0E0E0"/>
<path d="M286.568 239.018C286.191 239.271 285.794 239.498 285.384 239.704C284.31 240.314 283.283 241 282.312 241.762C280.875 242.887 279.534 244.115 278.288 245.446C276.872 246.949 275.415 248.685 273.93 250.551C270.96 254.29 268.182 257.597 266.513 260.239C265.671 261.549 265.055 262.654 264.651 263.422C264.467 263.834 264.248 264.232 264.001 264.616C264.022 264.479 264.063 264.348 264.118 264.225C264.207 264.012 264.33 263.697 264.515 263.299C265.035 262.174 265.623 261.083 266.273 260.026C267.895 257.323 270.652 253.968 273.615 250.235C275.107 248.369 276.578 246.626 278.021 245.131C279.287 243.8 280.656 242.572 282.127 241.474C283.14 240.733 284.207 240.081 285.329 239.525C285.719 239.333 286.013 239.21 286.253 239.12C286.349 239.072 286.458 239.038 286.568 239.018Z" fill="#E0E0E0"/>
<path d="M287.006 247.306C286.185 247.491 285.35 247.614 284.508 247.669C282.503 247.875 280.519 248.273 278.583 248.842C276.667 249.467 274.874 250.407 273.273 251.635C272.048 252.582 271.473 253.364 271.412 253.323C271.508 253.11 271.631 252.918 271.788 252.746C272.178 252.259 272.609 251.813 273.088 251.408C274.682 250.077 276.516 249.076 278.487 248.444C280.451 247.854 282.469 247.498 284.515 247.374C285.343 247.271 286.178 247.251 287.006 247.306Z" fill="#E0E0E0"/>
<path d="M272.144 252.41C272.014 252.335 273.143 250.613 274.012 248.294C274.881 245.975 275.024 243.896 275.175 243.923C275.237 244.383 275.223 244.842 275.134 245.295C275.004 246.373 274.751 247.429 274.381 248.445C274.005 249.467 273.519 250.441 272.931 251.354C272.725 251.745 272.459 252.101 272.144 252.41Z" fill="#E0E0E0"/>
<path d="M293.869 216.76C293.745 216.849 293.615 216.918 293.472 216.973L292.295 217.508C291.782 217.735 291.159 218.016 290.454 218.386C289.749 218.757 288.921 219.127 288.066 219.642L286.698 220.417C286.226 220.692 285.753 221.014 285.261 221.33C284.255 221.94 283.249 222.702 282.168 223.463C279.883 225.192 277.734 227.093 275.729 229.144C273.745 231.223 271.918 233.453 270.255 235.8C269.523 236.904 268.812 237.933 268.237 238.963C267.943 239.477 267.635 239.951 267.382 240.438L266.649 241.81C266.164 242.688 265.815 243.525 265.479 244.246C265.144 244.966 264.87 245.618 264.672 246.119C264.473 246.619 264.309 247.004 264.179 247.319C264.125 247.463 264.063 247.594 263.981 247.724C264.001 247.573 264.042 247.429 264.097 247.292C264.207 246.962 264.35 246.558 264.521 246.064C264.74 245.412 264.987 244.774 265.267 244.149C265.589 243.422 265.917 242.571 266.389 241.68L267.074 240.266C267.32 239.772 267.621 239.285 267.915 238.77C268.476 237.728 269.188 236.678 269.913 235.559C273.17 230.764 277.221 226.565 281.887 223.134C282.982 222.373 284.002 221.625 285.021 221.021C285.528 220.712 286 220.39 286.479 220.122L287.847 219.367C288.716 218.86 289.551 218.503 290.276 218.153C291.002 217.803 291.645 217.542 292.151 217.343L293.362 216.877C293.526 216.815 293.698 216.774 293.869 216.76Z" fill="#E0E0E0"/>
<path d="M276.017 228.76C276.181 228.177 276.523 227.669 276.995 227.292C278.104 226.352 279.499 225.824 280.95 225.803C282.38 225.803 283.796 226.078 285.117 226.62C285.678 226.798 286.205 227.059 286.691 227.388C286.123 227.272 285.562 227.107 285.021 226.901C283.714 226.448 282.346 226.215 280.964 226.215C279.595 226.242 278.275 226.709 277.187 227.539C276.769 227.916 276.379 228.328 276.017 228.76Z" fill="#E0E0E0"/>
<path d="M273.348 231.519C273.232 231.457 274.238 229.975 274.47 227.855C274.703 225.735 274.094 224.068 274.217 224.033C274.34 223.999 274.491 224.404 274.682 225.097C274.922 226.009 274.99 226.963 274.881 227.903C274.778 228.843 274.491 229.755 274.046 230.586C273.697 231.224 273.389 231.546 273.348 231.519Z" fill="#E0E0E0"/>
<path d="M244.275 268.678C244.89 279.621 248.182 290.757 253.245 302.015H275.25C280.074 290.873 283.14 279.751 283.687 268.678H244.275Z" fill="#E0E0E0"/>
<path d="M280.108 286.393C280.108 286.509 272.862 286.599 263.926 286.599C254.99 286.599 247.744 286.509 247.744 286.393C247.744 286.276 254.99 286.187 263.926 286.187C272.862 286.187 280.108 286.276 280.108 286.393Z" fill="#FAFAFA"/>
<path d="M279.623 290.359C279.623 290.475 272.828 290.564 264.446 290.564C256.064 290.564 249.276 290.475 249.276 290.359C249.276 290.242 256.071 290.153 264.446 290.153C272.821 290.153 279.623 290.242 279.623 290.359Z" fill="#FAFAFA"/>
<path d="M253.594 275.889C253.868 279.271 253.868 282.674 253.594 286.057C253.478 286.057 253.382 283.786 253.382 280.973C253.382 278.16 253.478 275.889 253.594 275.889Z" fill="#FAFAFA"/>
<path d="M265.384 275.889C265.5 275.889 265.589 278.249 265.589 281.158C265.589 284.067 265.5 286.42 265.384 286.42C265.267 286.42 265.178 284.06 265.178 281.158C265.178 278.256 265.267 275.889 265.384 275.889Z" fill="#FAFAFA"/>
<path d="M276.434 275.772C276.708 279.347 276.708 282.942 276.434 286.516C276.318 286.516 276.229 284.108 276.229 281.144C276.229 278.18 276.338 275.772 276.434 275.772Z" fill="#FAFAFA"/>
<path d="M282.982 275.888C282.982 276.005 274.484 276.101 264.001 276.101C253.519 276.101 245.021 276.005 245.021 275.888C245.021 275.772 253.512 275.683 264.001 275.683C274.491 275.683 282.982 275.751 282.982 275.888Z" fill="#FAFAFA"/>
<path d="M294.95 0.0136719H242.222V55.1283H294.95V0.0136719Z" fill="#E0E0E0"/>
<path d="M291.378 0.0136719H238.65V55.1283H291.378V0.0136719Z" fill="#FAFAFA"/>
<path d="M291.398 55.1489H238.636V0H291.398V55.1489ZM238.664 55.1489H291.351V0.0274441H238.664V55.1489Z" fill="#E0E0E0"/>
<path d="M284.296 7.42383H245.739V47.7186H284.296V7.42383Z" fill="white"/>
<path d="M245.739 47.9927C245.465 48.3975 245.144 48.768 244.788 49.0973C244.172 49.7834 243.303 50.6342 242.338 51.5879C241.373 52.5415 240.477 53.3992 239.82 54.0098C239.485 54.3597 239.115 54.6753 238.705 54.936C238.972 54.5312 239.293 54.1607 239.649 53.8314C240.265 53.1796 241.134 52.2945 242.106 51.334C243.077 50.3735 243.974 49.5227 244.63 48.9121C244.959 48.5621 245.335 48.2534 245.739 47.9927Z" fill="#E0E0E0"/>
<path d="M284.289 47.8901C284.693 48.1646 285.069 48.4802 285.398 48.8438C286.048 49.4613 286.93 50.3327 287.881 51.3001C288.833 52.2675 289.688 53.1663 290.297 53.8249C290.646 54.1611 290.961 54.5316 291.221 54.9433C290.817 54.6757 290.447 54.3532 290.119 53.9964C289.469 53.379 288.586 52.5076 287.628 51.5333C286.67 50.5591 285.822 49.6603 285.213 49.0016C284.864 48.6723 284.549 48.2949 284.289 47.8901Z" fill="#E0E0E0"/>
<path d="M284.187 7.53323C284.46 7.12843 284.775 6.75107 285.138 6.42174C285.753 5.73564 286.616 4.88487 287.587 3.93119C288.559 2.97751 289.435 2.1336 290.119 1.51611C290.447 1.15933 290.824 0.843727 291.234 0.583008C290.967 0.987808 290.646 1.3583 290.29 1.68763C289.674 2.33943 288.805 3.2245 287.834 4.18505C286.862 5.14559 285.966 5.99636 285.309 6.60699C284.973 6.9569 284.597 7.26565 284.187 7.53323Z" fill="#E0E0E0"/>
<path d="M245.643 7.62247C245.233 7.35489 244.863 7.03242 244.535 6.66879C243.885 6.0513 243.002 5.18681 242.051 4.21254C241.1 3.23827 240.244 2.34634 239.635 1.68768C239.286 1.35149 238.972 0.980997 238.712 0.569336C239.115 0.836916 239.485 1.15938 239.813 1.51616C240.463 2.13365 241.346 3.005 242.304 3.97927C243.262 4.95353 244.11 5.85232 244.719 6.51098C245.068 6.84717 245.376 7.21767 245.643 7.62247Z" fill="#E0E0E0"/>
<path d="M284.186 47.7187V44.789C284.186 42.8816 284.186 40.1029 284.145 36.5558C284.145 29.4958 284.104 19.4444 284.07 7.40327L284.221 7.55421H245.78L245.951 7.38269V47.6775L245.807 47.5334L273.649 47.6089L281.463 47.65H284.234C284.18 47.65 284.118 47.65 284.063 47.65H281.491L273.704 47.6912L245.773 47.7667H245.629V7.14941H284.399V7.30036C284.364 19.3758 284.337 29.4683 284.323 36.5489C284.323 40.0617 284.289 42.8267 284.282 44.7273V47.4168C284.262 47.5197 284.228 47.6226 284.186 47.7187Z" fill="#E0E0E0"/>
<path d="M271.446 21.125H258.582V34.0237H271.446V21.125Z" fill="#EBEBEB"/>
<path d="M65.1877 87.0938H4.97437V174.613H65.1877V87.0938Z" fill="#E0E0E0"/>
<path d="M62.1703 87.0938H1.95691V174.613H62.1703V87.0938Z" fill="#F5F5F5"/>
<path d="M54.6915 96.5688H9.4425V165.124H54.6915V96.5688Z" fill="white"/>
<path d="M54.6915 165.131V160.061C54.6915 156.774 54.6915 151.985 54.6505 145.941C54.6505 133.852 54.6094 116.734 54.5752 96.5415L54.7257 96.6924H9.48361L9.64783 96.5278V165.09L9.51782 164.96L42.4573 165.028H54.7668H51.6056L42.5325 165.063L9.51782 165.131H9.38782V96.2739H54.9515V96.4249C54.9515 116.631 54.8968 133.783 54.8763 145.893C54.8763 151.931 54.8763 156.706 54.8421 159.985V164.671C54.8421 164.898 54.6915 165.131 54.6915 165.131Z" fill="#E0E0E0"/>
<path d="M62.3414 87.0938C62.0335 87.6495 61.6777 88.1709 61.274 88.6581C60.5897 89.5912 59.5771 90.8673 58.4481 92.2464C57.3191 93.6254 56.2516 94.8536 55.4716 95.7181C55.0747 96.212 54.63 96.6717 54.1442 97.0903C54.4794 96.5551 54.8695 96.0474 55.2937 95.5808L58.1949 92.0543L61.0892 88.5277C61.4656 88.02 61.8898 87.5397 62.3414 87.0938Z" fill="#E0E0E0"/>
<path d="M54.9242 164.912C57.1754 168.5 59.8234 171.821 62.8204 174.805L54.9242 164.912Z" fill="white"/>
<path d="M62.8203 174.805C62.3208 174.435 61.8624 174.016 61.4519 173.55C59.3512 171.409 57.4764 169.056 55.8547 166.531C55.4989 166.023 55.191 165.481 54.9379 164.912C55.3416 165.378 55.7179 165.879 56.0463 166.4C56.7306 167.334 57.6475 168.61 58.7354 169.982C59.8234 171.354 60.8634 172.541 61.6229 173.412C62.054 173.852 62.4508 174.311 62.8203 174.805Z" fill="#E0E0E0"/>
<path d="M1.95007 174.538L9.83939 164.781L1.95007 174.538Z" fill="white"/>
<path d="M9.83939 164.781C8.64881 166.503 7.37612 168.171 6.02132 169.762C4.74863 171.436 3.39383 173.042 1.95007 174.565C3.14066 172.829 4.41335 171.148 5.76815 169.543C7.04084 167.882 8.40248 166.298 9.83939 164.781Z" fill="#E0E0E0"/>
<path d="M1.95691 87.0938C3.31855 88.5483 4.59809 90.0852 5.78867 91.6838C7.0682 93.2206 8.25879 94.8193 9.36042 96.4865C7.99877 95.0251 6.71924 93.4951 5.52866 91.8965C4.25596 90.3596 3.05854 88.7541 1.95691 87.0938Z" fill="#E0E0E0"/>
<path d="M40.5893 110.49H25.4402V153.625H40.5893V110.49Z" fill="#E0E0E0"/>
<path d="M28.2524 42.209C17.715 46.5452 12.6721 58.6206 16.976 69.1934L29.7851 100.541L35.4985 98.1881L22.6963 66.8332C19.6788 59.4439 23.2095 50.998 30.5788 47.9723C37.9481 44.9465 46.3711 48.4868 49.3886 55.8762L55.1363 53.516C50.8118 42.9637 38.7897 37.914 28.2524 42.2159V42.209Z" fill="#487BE2"/>
<g opacity="0.3">
<path d="M28.2524 42.209C17.715 46.5452 12.6721 58.6206 16.976 69.1934L29.7851 100.541L35.4985 98.1881L22.6963 66.8332C19.6788 59.4439 23.2095 50.998 30.5788 47.9723C37.9481 44.9465 46.3711 48.4868 49.3886 55.8762L55.1363 53.516C50.8118 42.9637 38.7897 37.914 28.2524 42.2159V42.209Z" fill="black"/>
</g>
<path d="M65.2298 69.6982L21.1272 87.8082C19.0953 88.6425 18.1228 90.9704 18.9548 93.0078L29.462 118.735C30.2941 120.772 32.6157 121.747 34.6475 120.913L78.7502 102.803C80.782 101.969 81.7546 99.641 80.9225 97.6036L70.4153 71.8765C69.5833 69.8391 67.2616 68.8639 65.2298 69.6982Z" fill="#487BE2"/>
<g opacity="0.5">
<path d="M52.4745 89.2342C51.5097 86.8466 48.8001 85.7008 46.4258 86.6613C44.0514 87.6219 42.9019 90.3457 43.8598 92.7265C44.6399 94.6682 46.6173 95.8414 48.6906 95.6081L51.3181 102.057L53.665 101.097L51.0307 94.6476C52.6661 93.3714 53.2545 91.1553 52.4745 89.2342Z" fill="black"/>
</g>
<path d="M32.4262 118.16C32.303 118.215 29.9561 112.726 27.178 105.92C24.4 99.1141 22.231 93.5498 22.3541 93.5018C22.4773 93.4538 24.8242 98.9357 27.6023 105.749C30.3803 112.562 32.5425 118.119 32.4262 118.16Z" fill="#FAFAFA"/>
<path d="M47.0621 97.9137C46.85 97.9274 46.6448 97.9 46.4463 97.8314C45.8921 97.6804 45.3652 97.454 44.8726 97.1521C41.7798 95.3202 40.7466 91.3271 42.5735 88.2191C42.7856 87.8554 43.032 87.5124 43.3125 87.2036C43.6751 86.7577 44.1131 86.3666 44.5989 86.0578C44.941 85.8452 45.1736 85.7628 45.1736 85.7903C44.5989 86.2843 44.0652 86.8194 43.5725 87.3889C41.335 90.1676 41.7661 94.2362 44.5373 96.4797C44.7083 96.617 44.8794 96.7405 45.0573 96.864C45.7005 97.2688 46.3711 97.6187 47.0621 97.9206V97.9137Z" fill="#FAFAFA"/>
<path d="M10.5851 103.567L10.8657 102.75L11.3994 103.43C11.8236 103.965 12.3984 104.363 13.0484 104.576L13.8626 104.857L13.1852 105.392C12.6584 105.824 12.2615 106.394 12.0426 107.045L11.7689 107.876L11.1941 107.203C10.763 106.675 10.1883 106.277 9.54508 106.058L8.73767 105.776L9.40823 105.241C9.95562 104.809 10.3662 104.226 10.592 103.567H10.5851Z" fill="#487BE2"/>
<path d="M37.7086 71.5881L37.8659 71.1216L38.1738 71.5127C38.4202 71.8351 38.7554 72.0753 39.1318 72.2125L39.5971 72.3703L39.2071 72.6859C38.8923 72.9329 38.6597 73.2622 38.5297 73.6464L38.3723 74.1198L38.0438 73.7082C37.7975 73.3926 37.4691 73.1593 37.0859 73.0289L36.6138 72.8643L37.0106 72.5555C37.3254 72.3085 37.5649 71.9792 37.7017 71.595L37.7086 71.5881Z" fill="#487BE2"/>
<path d="M5.09071 75.5744L5.55599 74.2021L6.45235 75.3479C7.16396 76.2536 8.12875 76.9328 9.21669 77.3102L10.5783 77.7836L9.43565 78.6824C8.53245 79.4028 7.84821 80.3633 7.47187 81.4543L7.00659 82.8196L6.11707 81.6738C5.40546 80.7681 4.44068 80.082 3.35273 79.7047L1.99109 79.2313L3.13377 78.3393C4.03697 77.6189 4.71438 76.6584 5.09071 75.5744Z" fill="#487BE2"/>
<path d="M202.139 304.636L116.048 304.581C105.695 304.581 97.2993 296.156 97.2993 285.775L97.3404 69.3441C97.3404 58.9565 105.743 50.5381 116.102 50.5449L202.194 50.593C212.546 50.593 220.942 59.0183 220.942 69.399L220.901 285.837C220.901 296.224 212.498 304.643 202.139 304.636Z" fill="#263238"/>
<path d="M202.105 58.2428H185.423C183.138 58.2909 181.324 60.1914 181.372 62.4829C181.372 62.4829 181.372 62.4829 181.372 62.4898V65.4949C181.42 67.7865 179.607 69.687 177.321 69.7419H144.786C142.494 69.7007 140.667 67.8071 140.701 65.5087C140.701 65.5087 140.701 65.4949 140.701 65.4881V62.4555C140.756 60.1571 138.942 58.2565 136.65 58.2017H116.198C108.952 58.2017 103.074 64.0747 103.054 71.3405L103.013 282.598C103.013 289.871 108.89 295.765 116.143 295.772L202.071 295.826C209.324 295.826 215.208 289.946 215.208 282.674V282.653L215.249 71.4023C215.249 64.1296 209.365 58.2428 202.112 58.2428H202.105Z" fill="white"/>
<path d="M151.149 279.69C151.156 280.602 150.431 281.35 149.514 281.364C148.604 281.371 147.858 280.643 147.844 279.724C147.837 278.811 148.563 278.064 149.48 278.05C150.39 278.05 151.135 278.777 151.149 279.69Z" fill="#263238"/>
<path d="M160.386 279.614C160.393 280.526 159.668 281.274 158.751 281.288C157.841 281.295 157.095 280.568 157.082 279.648C157.075 278.736 157.8 277.988 158.717 277.974C159.627 277.974 160.373 278.701 160.38 279.614H160.386Z" fill="#263238"/>
<path d="M169.631 279.546C169.637 280.458 168.912 281.206 167.995 281.22C167.085 281.227 166.339 280.499 166.326 279.58C166.319 278.667 167.044 277.919 167.961 277.906C168.871 277.906 169.617 278.633 169.624 279.546H169.631Z" fill="#263238"/>
<path d="M202.618 79.5807C202.618 79.6288 200.442 79.6837 197.767 79.7111C195.091 79.7385 192.922 79.7111 192.922 79.6562C192.922 79.6013 195.112 79.5327 197.767 79.5327C200.422 79.5327 202.611 79.5327 202.618 79.5807Z" fill="#263238"/>
<path d="M202.638 82.0647C202.638 82.1196 200.469 82.1745 197.794 82.2019C195.119 82.2293 192.943 82.2019 192.943 82.147C192.943 82.0921 195.112 82.0372 197.794 82.0098C200.476 81.9823 202.638 82.0098 202.638 82.0647Z" fill="#263238"/>
<path d="M202.686 84.5482C202.686 84.6031 200.51 84.658 197.835 84.6854C195.16 84.7128 192.991 84.6854 192.991 84.6305C192.991 84.5756 195.16 84.5276 197.835 84.5002C200.51 84.4727 202.652 84.5002 202.686 84.5482Z" fill="#263238"/>
<path d="M114.412 87.3888H115.192L117.266 87.3407L117.211 87.3956V85.8931C117.197 85.6049 117.197 85.3167 117.211 85.0286C117.272 84.6924 117.553 84.4317 117.895 84.3974H118.887C119.277 84.4591 119.565 84.7953 119.558 85.1864V87.3888L119.469 87.2996H122.083L121.994 87.3888V83.2927C121.994 83.1692 121.953 83.0526 121.891 82.9566C121.809 82.8536 121.72 82.7576 121.624 82.6684C121.241 82.291 120.858 81.9068 120.461 81.5363L119.359 80.4454C119.181 80.267 119.003 80.0886 118.826 79.9103C118.648 79.7319 118.497 79.5466 118.278 79.5055C118.073 79.4574 117.861 79.5055 117.697 79.6221C117.539 79.7593 117.368 79.9446 117.211 80.1024L116.273 81.0492C115.692 81.6324 115.069 82.2156 114.624 82.7576C114.494 83.0663 114.453 83.4094 114.494 83.7387V87.4437V86.195C114.494 85.845 114.494 85.2687 114.467 84.6992V83.2447C114.467 83.0526 114.515 82.8674 114.611 82.7027C115.096 82.1195 115.671 81.5843 116.267 80.9463L117.197 79.9926C117.368 79.8279 117.505 79.6564 117.697 79.4917C117.909 79.3271 118.189 79.279 118.449 79.3477C118.696 79.4368 118.908 79.5878 119.065 79.7936L119.599 80.3219L120.707 81.4128L121.87 82.5449C121.98 82.6409 122.076 82.7439 122.165 82.8605C122.247 82.9909 122.295 83.1418 122.302 83.2927V87.478H119.517V85.2001C119.517 84.8776 119.291 84.6032 118.983 84.5483H118.032C117.744 84.5689 117.505 84.7816 117.45 85.0629V87.4574H114.624C114.556 87.4437 114.487 87.4231 114.419 87.3956L114.412 87.3888Z" fill="#263238"/>
<path d="M207.941 150.88C207.941 150.963 186.36 151.031 159.709 151.031C133.058 151.031 111.47 150.963 111.47 150.88C111.47 150.798 133.051 150.729 159.709 150.729C186.367 150.729 207.941 150.784 207.941 150.88Z" fill="#E0E0E0"/>
<path d="M205.69 239.909C205.69 239.998 184.109 240.06 157.458 240.06C130.807 240.06 109.226 239.998 109.226 239.909C109.226 239.82 130.807 239.758 157.458 239.758C184.109 239.758 205.69 239.827 205.69 239.909Z" fill="#E0E0E0"/>
<path d="M183.877 246.606C183.877 246.688 171.882 246.756 157.082 246.756C142.281 246.756 130.287 246.688 130.287 246.606C130.287 246.523 142.281 246.455 157.082 246.455C171.882 246.455 183.877 246.516 183.877 246.606Z" fill="#E0E0E0"/>
<path d="M120.16 176.788L121.987 177.776L121.166 179.155L119.325 178.064L119.359 180.102H117.785V178.05L115.938 179.162L115.151 177.79L116.958 176.795L115.124 175.786L115.931 174.414L117.779 175.519V173.474H119.352L119.318 175.519L121.159 174.414L121.98 175.786L120.16 176.795V176.788Z" fill="#F79145"/>
<path d="M141.111 176.788L142.938 177.776L142.117 179.155L140.283 178.064V180.122H138.703V178.071L136.862 179.182L136.096 177.782L137.95 176.788L136.123 175.779L136.931 174.407L138.771 175.511V173.467H140.283L140.249 175.511L142.09 174.407L142.911 175.779L141.111 176.788Z" fill="#F79145"/>
<path d="M161.502 176.788L163.329 177.776L162.508 179.155L160.667 178.064L160.701 180.122H159.127V178.071L157.28 179.182L156.493 177.783L158.327 176.795L156.493 175.786L157.301 174.414L159.148 175.519V173.474H160.708L160.674 175.519L162.514 174.414L163.336 175.786L161.509 176.795L161.502 176.788Z" fill="#F79145"/>
<path d="M181.256 176.788L183.083 177.776L182.275 179.155L180.435 178.064L180.469 180.102H178.895V178.05L177.055 179.162L176.247 177.79L178.081 176.802L176.247 175.793L177.055 174.421L178.895 175.526V173.481H180.469L180.435 175.526L182.275 174.421L183.096 175.793L181.256 176.802V176.788Z" fill="#F79145"/>
<path d="M200.853 176.788L202.693 177.783L201.872 179.162L200.032 178.071L200.059 180.109H198.485V178.057L196.645 179.169L195.851 177.79L197.678 176.802L195.851 175.793L196.658 174.421L198.499 175.526V173.481H200.073L200.045 175.526L201.886 174.421L202.707 175.793L200.859 176.802L200.853 176.788Z" fill="#F79145"/>
<path d="M123.41 189.529H114.576C112.298 189.529 110.457 187.676 110.45 185.391V169.659C110.45 167.374 112.298 165.529 114.576 165.529H123.41C125.689 165.529 127.529 167.374 127.536 169.659V185.385C127.536 187.669 125.689 189.522 123.41 189.529ZM114.57 165.824C112.455 165.824 110.738 167.539 110.738 169.659V185.385C110.738 187.505 112.455 189.227 114.57 189.227H123.403C125.517 189.227 127.235 187.505 127.235 185.385V169.652C127.235 167.532 125.517 165.817 123.403 165.817H114.57V165.824Z" fill="#263238"/>
<path d="M143.931 189.529H135.097C132.818 189.536 130.957 187.69 130.95 185.405C130.95 185.405 130.95 185.392 130.95 185.385V169.652C130.95 167.368 132.798 165.522 135.076 165.522H143.91C146.189 165.522 148.029 167.368 148.036 169.652V185.385C148.036 187.663 146.202 189.508 143.937 189.529H143.931ZM135.097 165.824C132.983 165.824 131.265 167.539 131.265 169.659V185.385C131.265 187.505 132.983 189.227 135.097 189.227H143.931C146.045 189.227 147.762 187.505 147.762 185.385V169.652C147.762 167.532 146.045 165.817 143.931 165.817H135.097V165.824Z" fill="#263238"/>
<path d="M163.897 189.529H155.056C152.778 189.529 150.937 187.676 150.93 185.391V169.659C150.93 167.374 152.778 165.529 155.056 165.529H163.897C166.168 165.529 168.009 167.381 168.016 169.659V185.385C168.016 187.669 166.175 189.522 163.897 189.529ZM155.056 165.824C152.942 165.824 151.225 167.539 151.225 169.659V185.385C151.225 187.505 152.942 189.227 155.056 189.227H163.897C166.011 189.227 167.722 187.505 167.722 185.385V169.652C167.722 167.532 166.011 165.817 163.897 165.817H155.056V165.824Z" fill="#263238"/>
<path d="M184.082 189.529H175.241C172.963 189.529 171.122 187.676 171.115 185.391V169.659C171.115 167.374 172.963 165.529 175.241 165.529H184.082C186.354 165.529 188.194 167.381 188.201 169.659V185.385C188.201 187.669 186.36 189.522 184.082 189.529ZM175.241 165.824C173.127 165.824 171.41 167.539 171.41 169.659V185.385C171.41 187.505 173.127 189.227 175.241 189.227H184.082C186.196 189.227 187.907 187.505 187.907 185.385V169.652C187.907 167.532 186.196 165.817 184.082 165.817H175.241V165.824Z" fill="#263238"/>
<path d="M203.679 189.529H194.845C192.566 189.529 190.726 187.676 190.719 185.391V169.659C190.719 167.374 192.566 165.529 194.845 165.529H203.679C205.957 165.529 207.798 167.374 207.805 169.659V185.385C207.805 187.669 205.957 189.522 203.679 189.529ZM194.845 165.824C192.731 165.824 191.013 167.539 191.013 169.659V185.385C191.013 187.505 192.731 189.227 194.845 189.227H203.679C205.793 189.227 207.51 187.505 207.51 185.385V169.652C207.51 167.532 205.793 165.817 203.679 165.817H194.845V165.824Z" fill="#263238"/>
<path d="M201.893 208.52H118.312C114.046 208.52 110.587 211.988 110.587 216.266V218.167C110.587 222.445 114.046 225.913 118.312 225.913H201.893C206.159 225.913 209.618 222.445 209.618 218.167V216.266C209.618 211.988 206.159 208.52 201.893 208.52Z" fill="#487BE2"/>
<path d="M176.431 110.729C177.982 101.15 171.495 92.1239 161.942 90.5691C152.389 89.0142 143.388 95.519 141.837 105.098C140.287 114.677 146.774 123.702 156.327 125.257C165.88 126.812 174.881 120.307 176.431 110.729Z" fill="#F79145"/>
<path d="M156.028 104.706H155.734V103.066C155.734 101.173 157.266 99.6357 159.155 99.6357C161.043 99.6357 162.576 101.173 162.576 103.066V104.397H162.282V103.066C162.282 101.337 160.879 99.9308 159.155 99.9308C157.431 99.9308 156.028 101.337 156.028 103.066V104.706Z" fill="white"/>
<path d="M163.472 116.17H154.782C153.989 116.17 153.346 115.525 153.339 114.723V106.002C153.339 105.206 153.982 104.562 154.782 104.555H163.472C164.266 104.555 164.909 105.2 164.916 106.002V114.723C164.916 115.519 164.273 116.164 163.472 116.17ZM154.782 104.857C154.139 104.857 153.619 105.378 153.619 106.023V114.743C153.619 115.388 154.139 115.91 154.782 115.91H163.472C164.116 115.91 164.636 115.388 164.636 114.743V106.009C164.636 105.364 164.116 104.843 163.472 104.843L154.782 104.863V104.857Z" fill="white"/>
<path d="M159.169 110.648C158.416 110.648 157.807 110.037 157.807 109.282C157.807 108.528 158.416 107.917 159.169 107.917C159.921 107.917 160.53 108.528 160.53 109.282C160.53 110.037 159.921 110.648 159.169 110.648ZM159.169 108.212C158.573 108.212 158.094 108.692 158.094 109.289C158.094 109.886 158.573 110.366 159.169 110.366C159.764 110.366 160.243 109.886 160.243 109.289C160.25 108.692 159.777 108.205 159.189 108.198C159.189 108.198 159.175 108.198 159.169 108.198V108.219V108.212Z" fill="white"/>
<path d="M159.271 110.449H158.977V112.919H159.271V110.449Z" fill="white"/>
<path d="M296.961 304.821C296.961 304.924 230.473 305 148.481 305C66.4879 305 0 304.924 0 304.821C0 304.719 66.4742 304.643 148.481 304.643C230.487 304.643 296.961 304.705 296.961 304.821Z" fill="#263238"/>
<path d="M38.7692 210.338C45.2763 200.349 45.03 185.749 37.2501 176.719C34.8348 173.913 31.4614 171.478 27.7802 171.793C24.099 172.109 20.9788 175.354 19.843 178.97C18.7072 182.586 19.0972 186.517 19.7677 190.229C20.712 195.457 22.2926 200.802 25.9259 204.685C29.5592 208.568 34.1368 212.884 38.8034 210.338" fill="#97E4FF"/>
<path d="M35.8612 258.05C38.2628 252.095 36.5933 245.268 31.7146 241.103C30.2162 239.875 28.2934 238.928 26.3912 239.429C24.489 239.93 23.2095 241.879 22.97 243.848C22.8195 245.844 23.1548 247.848 23.9485 249.686C24.9064 252.287 26.2065 254.901 28.4166 256.547C30.6267 258.194 33.7263 259.786 35.8885 258.05" fill="#97E4FF"/>
<path d="M51.5714 254.654C49.7786 245.797 54.4315 236.027 62.4235 231.855C64.9073 230.565 67.959 229.797 70.4633 231.052C72.9676 232.308 74.254 235.471 74.0487 238.339C73.8435 241.207 72.475 243.828 70.956 246.277C68.8348 249.707 66.2278 253.008 62.6014 254.723C58.9749 256.438 54.1236 257.749 51.5714 254.654Z" fill="#97E4FF"/>
<path d="M50.4423 230.709C47.3222 220.616 52.6114 208.383 61.3902 202.579C64.1272 200.781 67.5895 199.533 70.648 200.699C73.7066 201.865 75.5746 205.392 75.6704 208.747C75.7662 212.102 74.4798 215.333 73.0018 218.352C70.9491 222.572 68.2874 226.737 64.2709 229.158C60.2544 231.58 53.7472 233.961 50.415 230.695" fill="#97E4FF"/>
<path d="M44.1815 280.006C44.2362 279.848 44.2636 279.683 44.2773 279.519C44.332 279.155 44.4073 278.688 44.4894 278.112C44.5304 277.803 44.5783 277.46 44.6331 277.097C44.6878 276.733 44.7768 276.321 44.8589 275.896C45.0231 275.031 45.1941 274.05 45.4747 272.987C45.6047 272.445 45.7415 271.882 45.8784 271.299C46.0152 270.716 46.2274 270.126 46.4053 269.501C46.7405 268.253 47.24 266.956 47.7053 265.577C49.8881 259.635 52.8782 254.03 56.6005 248.918C57.49 247.766 58.2906 246.634 59.1459 245.666C59.5632 245.165 59.9669 244.692 60.3501 244.225L61.5818 242.956C62.3139 242.133 63.0324 241.447 63.6345 240.836L64.5035 239.978L65.2698 239.292L66.3236 238.339C66.4536 238.236 66.5699 238.119 66.6725 237.989C66.5288 238.071 66.392 238.167 66.2688 238.277L65.1604 239.169L64.3666 239.821L63.4703 240.658C62.8271 241.255 62.1018 241.927 61.3354 242.716L60.1312 243.972C59.7411 244.431 59.3306 244.912 58.9064 245.399C58.0305 246.366 57.2163 247.498 56.3063 248.651C54.4383 251.224 52.7345 253.906 51.2155 256.699C49.7307 259.512 48.4375 262.421 47.3427 265.405C46.8842 266.778 46.3984 268.102 46.0768 269.371C45.8989 269.995 45.7347 270.599 45.5705 271.182C45.4063 271.766 45.3105 272.342 45.1873 272.884C44.9273 273.961 44.7768 274.942 44.6331 275.82C44.5646 276.253 44.4962 276.658 44.4346 277.028C44.3731 277.398 44.3662 277.714 44.332 278.057C44.2773 278.633 44.2362 279.107 44.202 279.477C44.1678 279.649 44.1609 279.827 44.1815 280.006Z" fill="#263238"/>
<path d="M44.4073 281.837C44.4141 281.769 44.4141 281.7 44.4073 281.632C44.4073 281.474 44.4073 281.282 44.3662 281.048C44.3183 280.5 44.2431 279.752 44.1609 278.805C44.113 278.318 44.0583 277.776 43.9967 277.193C43.9351 276.609 43.942 275.951 43.9009 275.258C43.853 273.886 43.7162 272.294 43.7709 270.551V267.807C43.7709 266.853 43.8667 265.865 43.9146 264.843C43.983 262.784 44.2636 260.616 44.5099 258.318C45.7826 248.369 48.6427 238.695 52.9808 229.659C54.0277 227.601 54.972 225.625 56.0326 223.869C56.5526 222.984 57.011 222.105 57.5242 221.303L59.0022 218.997C59.9122 217.502 60.877 216.253 61.6707 215.121C62.0813 214.558 62.4439 214.03 62.8066 213.557L63.8192 212.287L65.1877 210.517L65.5435 210.051C65.6188 209.948 65.6598 209.893 65.653 209.886C65.6462 209.879 65.5983 209.927 65.5093 210.023L65.1261 210.462L63.6687 212.184L62.656 213.454C62.2865 213.92 61.9102 214.442 61.4928 214.997C60.6786 216.123 59.6933 217.364 58.7558 218.846L57.2505 221.145C56.7305 221.948 56.2584 222.826 55.7315 223.711C54.6572 225.467 53.6788 227.45 52.6387 229.508C48.239 238.558 45.3652 248.28 44.1336 258.27C43.8941 260.575 43.6272 262.764 43.5725 264.822C43.5383 265.851 43.4562 266.846 43.4493 267.8C43.4425 268.753 43.4493 269.673 43.4493 270.544C43.4493 272.294 43.5725 273.879 43.6478 275.265C43.6957 275.951 43.723 276.637 43.7778 277.199C43.8325 277.762 43.9146 278.325 43.9762 278.819C44.0925 279.759 44.1883 280.506 44.2567 281.055C44.2909 281.289 44.3252 281.474 44.3457 281.632C44.3594 281.7 44.3799 281.769 44.4073 281.837Z" fill="#263238"/>
<path d="M27.4518 183.855C27.4723 183.917 27.5065 183.979 27.5407 184.04C27.616 184.178 27.705 184.356 27.8213 184.562L28.9297 186.558C29.1692 186.991 29.4566 187.464 29.7372 187.999L30.6061 189.756L31.612 191.773C31.9473 192.493 32.2962 193.269 32.6315 194.078C32.9668 194.888 33.3705 195.739 33.7331 196.63C34.0958 197.522 34.4174 198.476 34.8142 199.443L35.3822 200.925C35.5532 201.44 35.7311 201.955 35.909 202.483C36.258 203.533 36.5933 204.617 36.997 205.721C38.3655 210.202 39.686 215.183 40.7877 220.479C41.8893 225.776 42.6078 230.881 43.162 235.532C43.7162 240.184 43.9899 244.404 44.0857 247.951C44.1747 249.721 44.1952 251.32 44.1952 252.754V259.443C44.202 259.375 44.202 259.313 44.1952 259.244C44.1952 259.086 44.1952 258.894 44.2363 258.654C44.2363 258.091 44.2978 257.33 44.3457 256.369C44.3936 255.409 44.421 254.16 44.421 252.754C44.421 251.347 44.421 249.735 44.3731 247.951C44.3115 244.397 43.9968 240.177 43.5383 235.505C43.0799 230.833 42.2656 225.721 41.1914 220.411C40.1171 215.1 38.7623 210.119 37.3596 205.625L36.2648 202.359C36.0869 201.831 35.909 201.31 35.7311 200.802L35.1495 199.32L34.041 196.507C33.6715 195.608 33.2747 194.771 32.912 193.955C32.5494 193.138 32.2278 192.37 31.8583 191.656C31.4888 190.943 31.1741 190.284 30.8251 189.646C30.4761 189.008 30.1956 188.438 29.9219 187.896C29.6482 187.354 29.3335 186.902 29.0803 186.476L27.8965 184.521C27.7734 184.315 27.6639 184.15 27.5818 184.02C27.4997 183.89 27.4586 183.848 27.4518 183.855Z" fill="#263238"/>
<path d="M29.6687 245.138C29.8603 245.563 30.0929 245.975 30.3529 246.359C30.8319 247.121 31.4819 248.253 32.2483 249.666C33.0146 251.079 33.8631 252.795 34.7184 254.736C35.5737 256.678 36.3811 258.853 37.1133 261.22C37.8454 263.587 38.3654 265.837 38.7828 267.923C39.2002 270.009 39.4671 271.909 39.5971 273.515C39.7271 275.12 39.8571 276.41 39.8913 277.309C39.8913 277.769 39.9323 278.228 40.0076 278.681C40.0555 278.228 40.0692 277.769 40.0555 277.309C40.0555 276.403 40.0555 275.093 39.8981 273.487C39.7476 271.601 39.5013 269.721 39.166 267.855C38.7418 265.57 38.1875 263.313 37.517 261.09C36.8259 258.873 36.0116 256.699 35.0742 254.578C34.1984 252.63 33.3226 250.915 32.5152 249.515C31.7077 248.115 31.0167 247.004 30.4624 246.27C30.2229 245.879 29.9561 245.494 29.6687 245.138Z" fill="#263238"/>
<path d="M56.97 275.525H28.3618L31.8241 304.822H53.4051L56.97 275.525Z" fill="#455A64"/>
<path d="M55.9232 301.659L53.4941 304.822H31.8241L29.3267 301.762L55.9232 301.659Z" fill="#263238"/>
<path d="M29.4772 284.122C29.4772 284.239 35.4164 284.335 42.7378 284.335C50.0592 284.335 55.9916 284.239 55.9916 284.122C55.9916 284.006 50.0592 283.91 42.7378 283.91C35.4164 283.91 29.4772 284.026 29.4772 284.122Z" fill="#FAFAFA"/>
<path d="M29.4772 286.091C29.4772 286.208 35.4164 286.304 42.7378 286.304C50.0592 286.304 55.9916 286.208 55.9916 286.091C55.9916 285.974 50.0592 285.878 42.7378 285.878C35.4164 285.878 29.4772 285.974 29.4772 286.091Z" fill="#FAFAFA"/>
<path d="M29.8329 287.978C29.8329 288.101 35.56 288.197 42.6282 288.197C49.6965 288.197 55.4236 288.101 55.4236 287.978C55.4236 287.854 49.6965 287.765 42.6282 287.765C35.56 287.765 29.8329 287.861 29.8329 287.978Z" fill="#FAFAFA"/>
<path d="M52.5977 212.383C52.584 212.479 52.584 212.569 52.5977 212.665C52.5977 212.877 52.6319 213.145 52.6592 213.46C52.7345 214.195 52.8303 215.183 52.9535 216.376C53.2135 218.84 53.5967 222.243 54.0346 225.982C54.0346 226.126 54.0346 226.27 54.0825 226.4V226.531H54.2125C57.8869 226.586 61.1918 226.62 63.5798 226.634H67.4389C67.3568 226.613 67.2678 226.599 67.1789 226.599L66.4125 226.565L63.5866 226.476C61.1986 226.407 57.8937 226.339 54.2125 226.284L54.3562 226.407C54.3562 226.277 54.3562 226.133 54.3083 225.989C53.8704 222.236 53.4598 218.84 53.1451 216.383C52.9877 215.189 52.8577 214.208 52.755 213.474C52.714 213.159 52.6729 212.898 52.6387 212.685C52.6387 212.582 52.6319 212.479 52.5977 212.383Z" fill="#263238"/>
<path d="M59.1049 203.622C59.0912 203.718 59.0912 203.814 59.1049 203.91V207.759C59.1459 210.311 59.2143 213.838 59.3101 217.728V218.338H59.4607C62.6629 218.091 65.872 218.016 69.0811 218.119C70.3059 218.119 71.2981 218.208 71.9823 218.242H73.0429C73.0429 218.242 72.9539 218.242 72.776 218.188L71.9892 218.098C71.3049 218.03 70.3196 217.947 69.088 217.879C65.872 217.721 62.6492 217.762 59.4402 218.009L59.5975 218.153V217.694C59.5017 213.796 59.3991 210.277 59.3101 207.724C59.2622 206.483 59.2212 205.46 59.1938 204.706C59.1938 204.376 59.1938 204.102 59.1459 203.882C59.1459 203.793 59.1254 203.704 59.1049 203.622Z" fill="#263238"/>
<path d="M66.7136 200.637C66.6315 200.912 66.5768 201.193 66.5357 201.481C66.4262 202.071 66.2894 202.853 66.1115 203.786C65.742 205.735 65.1604 208.418 64.3462 211.334L64.2572 211.642L64.5514 211.505L64.8935 211.334C67.3021 210.188 69.8817 209.44 72.5297 209.117C73.5492 208.994 74.3771 208.946 74.9451 208.925C75.2393 208.939 75.5404 208.925 75.8346 208.877C75.7593 208.864 75.6841 208.864 75.6088 208.877C75.4583 208.877 75.2325 208.843 74.9245 208.843C74.1103 208.829 73.296 208.864 72.4886 208.946C69.8064 209.213 67.1926 209.954 64.7635 211.121L64.4146 211.292L64.6198 211.457C65.3178 208.953 65.8789 206.414 66.3099 203.848C66.4741 202.867 66.5836 202.071 66.6452 201.522C66.6999 201.227 66.7205 200.932 66.7136 200.637Z" fill="#263238"/>
<path d="M26.3159 254.05C26.3159 254.092 27.1507 254.009 28.485 253.954C30.2229 253.886 31.9609 253.947 33.6852 254.126C34.0958 254.167 34.4995 254.222 34.8826 254.277H35.0195V254.146C35.3342 252.411 35.5874 250.881 35.7653 249.783C35.8816 249.2 35.9569 248.61 35.9911 248.013C35.8132 248.582 35.6764 249.158 35.5806 249.749C35.3548 250.839 35.0605 252.363 34.7389 254.092L34.9032 253.975C34.5131 253.92 34.1094 253.865 33.6921 253.824C31.9541 253.639 30.1956 253.604 28.4508 253.735C27.7665 253.79 27.2396 253.858 26.8702 253.913C26.6786 253.934 26.4938 253.982 26.3159 254.05Z" fill="#263238"/>
<path d="M23.62 248.664C23.62 248.712 24.4206 248.527 25.7138 248.362C27.397 248.156 29.1008 248.143 30.7909 248.314L31.6872 248.424H31.8377V248.28C32.0157 246.496 32.1593 244.911 32.2551 243.779C32.3304 243.169 32.3646 242.558 32.3441 241.947C32.2072 242.544 32.1183 243.148 32.0636 243.759C31.9199 244.891 31.742 246.469 31.5504 248.246L31.7146 248.122L30.7909 248.026C29.0803 247.848 27.356 247.896 25.659 248.163C25.1459 248.246 24.6327 248.349 24.1332 248.486C23.9553 248.527 23.7842 248.582 23.62 248.664Z" fill="#263238"/>
<path d="M21.6768 197.673C21.7657 197.735 21.8615 197.783 21.9641 197.824L22.7989 198.195L25.8917 199.512L36.1553 203.773L36.7096 203.999L36.8396 204.054L36.8943 203.924C38.5844 200.095 40.1034 196.651 41.2256 194.119L42.4983 191.155L42.8335 190.346C42.8746 190.25 42.9088 190.154 42.9293 190.051C42.8678 190.133 42.8199 190.222 42.7788 190.318C42.6762 190.531 42.553 190.792 42.3956 191.107L41.0271 194.037L36.6138 203.807L36.8054 203.732L36.2511 203.505L26.0012 199.32L22.8742 198.085L22.0189 197.763C21.9094 197.715 21.7931 197.687 21.6768 197.673Z" fill="#263238"/>
<path d="M19.1588 185.276C19.2341 185.344 19.323 185.406 19.412 185.461L20.1646 185.948L22.9564 187.691L32.2689 193.392L32.4194 193.481L32.481 193.317L32.6521 192.864L36.5591 182.298C37.0312 180.974 37.4213 179.883 37.7086 179.087L38.0097 178.209C38.0508 178.106 38.0781 178.003 38.0918 177.893C38.0371 177.989 37.996 178.085 37.955 178.188L37.6334 179.046C37.3323 179.835 36.9081 180.912 36.3949 182.229C35.3685 184.974 33.9658 188.665 32.4126 192.768C32.3579 192.919 32.2963 193.077 32.2484 193.214L32.4536 193.138L23.0727 187.519L20.2331 185.852L19.453 185.413C19.3572 185.358 19.2614 185.31 19.1588 185.276Z" fill="#263238"/>
<path d="M19.9935 178.661C20.1851 178.805 20.3904 178.922 20.6093 179.025C21.0131 179.251 21.5947 179.581 22.2994 180.02C24.1674 181.179 25.9054 182.545 27.4791 184.088L27.8418 184.438L27.7186 183.944C27.5955 183.437 27.4791 182.895 27.3902 182.339C27.0002 179.793 27.137 177.186 27.7939 174.696C27.9992 173.941 28.2455 173.193 28.526 172.466C28.6492 172.205 28.7518 171.938 28.8339 171.663C28.6766 171.903 28.5397 172.157 28.4234 172.425C28.1018 173.145 27.8213 173.879 27.5955 174.634C26.8702 177.152 26.6991 179.793 27.1028 182.38C27.1918 182.949 27.3149 183.498 27.4449 184.02L27.6844 183.883C26.0901 182.325 24.3179 180.967 22.3952 179.835C21.6699 179.416 21.0746 179.107 20.6572 178.915C20.4451 178.812 20.2193 178.723 19.9935 178.661Z" fill="#263238"/>
<path d="M52.6388 242.956C52.6593 243.21 52.7004 243.457 52.7688 243.697C52.8646 244.17 53.0083 244.857 53.1657 245.707C53.5762 247.951 53.8362 250.222 53.9389 252.507V252.637H54.6984C57.538 252.808 60.1039 252.953 61.965 253.035L64.1683 253.124C64.4351 253.152 64.7088 253.152 64.9757 253.124C64.7157 253.062 64.442 253.028 64.1751 253.021L61.9787 252.836C60.1176 252.699 57.5517 252.527 54.7189 252.356L54.0757 252.321L54.2126 252.459C54.1099 250.188 53.8294 247.93 53.3709 245.7C53.1862 244.843 53.0151 244.164 52.8783 243.697C52.8235 243.443 52.7414 243.196 52.6388 242.956Z" fill="#263238"/>
<path d="M58.2564 234.901C58.2496 235.148 58.2633 235.402 58.3043 235.649C58.3659 236.178 58.4412 236.864 58.537 237.708C58.7423 239.43 59.0502 241.824 59.4128 244.514V244.63H59.5291L60.446 244.692C63.354 244.891 65.9747 245.193 67.8701 245.44L70.1144 245.742C70.3881 245.79 70.6618 245.817 70.9355 245.824C70.6754 245.735 70.4017 245.666 70.1281 245.632C69.608 245.522 68.8417 245.385 67.8974 245.234C66.0089 244.939 63.3814 244.603 60.4665 244.404L59.5428 244.342L59.6797 244.466C59.3102 241.783 58.9954 239.388 58.708 237.673C58.578 236.857 58.4754 236.178 58.3933 235.649C58.3728 235.395 58.3317 235.142 58.2564 234.901Z" fill="#263238"/>
<path d="M64.873 231.416C64.832 231.416 65.0099 232.205 65.2083 233.474C65.482 235.155 65.6394 236.849 65.6736 238.551V238.709H65.8378L66.3168 238.647C68.1095 238.427 69.909 238.325 71.7154 238.325H73.3645C73.5629 238.345 73.7682 238.345 73.9666 238.325C73.775 238.27 73.5697 238.235 73.3713 238.229C72.9813 238.187 72.4202 238.139 71.7223 238.119C69.909 238.05 68.089 238.132 66.2826 238.352L65.7967 238.414L65.961 238.558C65.9199 236.843 65.7352 235.134 65.4067 233.453C65.2767 232.815 65.1536 232.301 65.0578 231.951C65.0235 231.765 64.962 231.587 64.873 231.416Z" fill="#263238"/>
<path d="M27.1849 239.525C27.5544 240.52 27.9787 241.495 28.4645 242.434C28.8613 243.416 29.3198 244.376 29.833 245.302C29.5935 244.253 29.224 243.23 28.7382 242.27C28.3276 241.296 27.8076 240.376 27.1849 239.525Z" fill="#263238"/>
<path d="M23.5927 243.32C24.6874 243.485 25.7754 243.718 26.8428 244.006C27.8829 244.383 28.9024 244.816 29.8945 245.31C29.0392 244.562 28.0265 244.02 26.9249 243.732C25.8575 243.34 24.7217 243.196 23.5927 243.32Z" fill="#263238"/>
</g>
<defs>
<clipPath id="clip0_1_13927">
<rect width="313" height="305" fill="white"/>
</clipPath>
</defs>
</svg>
